<?xml version="1.0" standalone="yes"?>
            <svg xmlns="http://www.w3.org/2000/svg  width="1934" height="1953">
                <path style="fill:rgb(141, 71, 71); stroke:none;" d="M0 0L0 1153L1934 1153L1934 0L0 0z"/>
                <path style="fill:#a9a9a9; stroke:none;" d="M40 32L40 444L750 444L750 32L40 32M1201 32L1201 444L1911 444L1911 32L1201 32z"/>
                <path style="fill:rgb(141, 71, 71); stroke:none;" d="M49 41L49 435L741 435L741 41L49 41M1210 41L1210 435L1902 435L1902 41L1210 41z"/>
                <path style="fill:#a9a9a9; stroke:none;" d="M880 99C883.986 97.1145 887.507 94.6846 891 92L891 130L896 130L896 86C888.383 86.2421 880.27 90.8566 880 99M1061 91L1061 93C1064.69 96.6095 1064 101.111 1064 106C1060 106 1055.55 105.487 1052.02 107.742C1043.65 113.08 1042.27 128.163 1054 130.387C1058.21 131.184 1061.66 128.052 1065 126L1065 130C1068.43 129.483 1071 128.92 1073 126C1069.17 123.518 1070 119.205 1070 115L1070 87C1066.74 87.939 1063.93 89.2957 1061 91M1153 91L1153 93C1157.23 96.8152 1157 100.587 1157 106C1152.14 106 1147.15 105.452 1143.04 108.573C1135.77 114.105 1135.96 129.361 1147 130.472C1150.73 130.848 1154.1 127.948 1157 126L1157 131C1160.5 130.031 1163.09 129.153 1165 126C1161.17 123.518 1162 119.206 1162 115C1162 105.705 1161.3 96.1678 1163 87C1159.43 87.8175 1156.36 89.5613 1153 91M779 88C779.689 90.4254 781.164 92.5701 781.701 95.0393C783.998 105.599 781.948 119.506 780 130L799 130C796.508 126.473 792.403 128.204 789.603 125.397C786.33 122.114 788 113.283 788 109C794.94 109 800.767 108.571 807 112C807.625 108.637 807.972 105.422 808 102C800.96 105.751 795.981 106 788 106L788 91C792.191 91 797.005 90.3936 801 91.8927C804.235 93.1069 806.858 95.5697 810 97L810 88L779 88M823 94C827.454 96.4558 826.998 100.317 827 105C827.004 113.858 827.658 122.481 825 131L836 130C834.929 128.302 833.289 126.779 832.584 124.87C831.281 121.34 832 116.703 832 113C832 104.661 831.473 96.2261 833 88C828.861 88.7982 825.315 90.3938 823 94M1092 107L1088 107L1088 111L1092 111C1092 115.113 1093.07 121.025 1091.4 124.852C1090.23 127.514 1086.81 128.541 1084.6 126.392C1080.66 122.555 1083.11 110.797 1084 106C1080.84 106.276 1078.02 107.042 1075 108L1075 110C1080.15 115.455 1077.29 123.215 1077 130L1102 130L1102 128L1097 128L1097 111L1102 111L1102 107L1097 107C1097 101.592 1096.09 87.4293 1105.68 92.5872C1106.69 93.1335 1107.28 94.1794 1108 95C1110.75 94.0826 1113.13 91.3534 1109.68 89.027C1103.97 85.1783 1095.26 90.6119 1093.01 96.0146C1091.59 99.4181 1092 103.396 1092 107M815.603 91.1566C813.87 92.3145 815.664 95.0015 817.397 93.8434C819.13 92.6855 817.336 89.9985 815.603 91.1566M929.603 91.1566C927.87 92.3145 929.664 95.0015 931.397 93.8434C933.13 92.6855 931.336 89.9985 929.603 91.1566M1078 91L1079 95C1081.78 94.1876 1082.63 93.5474 1084 91C1081.54 90.3534 1080.46 90.3535 1078 91M1720 151L1745 151C1745.69 134.986 1754.16 119.602 1770 114.101C1795.18 105.354 1827.74 122.936 1823.57 152C1820.96 170.202 1808.89 183.668 1797.16 197C1781.71 214.545 1766.01 232.006 1749.96 249C1743.15 256.215 1736.66 263.723 1729.91 271C1726.58 274.593 1722.13 278.183 1720.56 283C1718.83 288.336 1720 295.43 1720 301L1852 301L1852 278L1755 278C1762.12 268.661 1770.92 260.578 1778.91 252C1794.22 235.569 1809.73 219.294 1824.08 202C1840.45 182.278 1853.3 158.364 1846.52 132C1835.25 88.1624 1776.05 78.163 1743 102.761C1727.86 114.03 1720.38 132.51 1720 151M574 153C592.747 145.114 607.601 128.704 626 120L626 301L652 301L652 92C644.28 92 634.442 90.3672 627 92.51C622.643 93.7646 618.724 97.1843 615 99.6666L594 113.667C588.596 117.27 578.293 121.469 575.028 127.185C573.566 129.745 574.001 133.171 574 136L574 153M300 128C304.18 128 309.388 127.286 312.686 130.434C316.124 133.715 315.976 139.62 315.999 144C316.048 153.349 317 162.612 317 172L317 247C317 259.544 317.937 272.499 316.907 285C316.241 293.075 310.888 293.11 307.028 298.637C305.611 300.666 306.008 303.665 306 306C323.704 303.763 341.101 301 359 301L359 292C353.893 291.999 347.446 292.66 343.573 288.581C340.194 285.023 341 279.496 341 275L341 245C341 217.059 339.955 189.017 340 161C340.012 153.642 341 146.386 341 139C341 129.589 341.433 120.371 342.09 111C342.32 107.705 343.877 103.419 342.396 100.247C339.927 94.9591 331.851 101.893 329 103.681C322.18 107.957 315.054 111.698 308 115.564C305.59 116.885 301.56 117.899 300.117 120.418C298.916 122.517 299.828 125.724 300 128M1461 128C1465.29 128 1470.38 127.24 1473.85 130.318C1477.65 133.69 1476.84 138.449 1477.04 143C1477.48 153.026 1478 162.921 1478 173C1478 201.364 1478.71 229.627 1478.01 258C1477.79 267.277 1478.71 276.754 1477.91 286C1477.24 293.6 1471.65 293.455 1468.03 298.637C1466.61 300.665 1467.01 303.666 1467 306C1484.76 304.586 1502.07 301 1520 301L1520 292C1515.33 292 1509.98 292.733 1506.11 289.566C1501.52 285.81 1502 280.356 1502 275L1502 245L1502 140C1502 131.293 1502.26 122.649 1503.29 114C1503.72 110.332 1505.58 104.713 1504.31 101.149C1502.09 94.962 1494.05 101.321 1491 103.189C1484.76 107.006 1478.47 110.807 1472 114.219C1468.86 115.875 1464.03 117.266 1462.03 120.39C1460.65 122.551 1461.01 125.559 1461 128M87 101C87 104.135 86.1885 108.772 88.0278 111.505C89.4073 113.556 92.1127 114.521 93.8673 116.224C96.9749 119.239 97.874 122.806 97.9853 127C99.2397 174.233 100.028 221.793 97.9606 269C97.7559 273.677 97.6523 279.51 96.3619 284C94.5645 290.253 91.0617 294.184 91 301L181 301L181 293C169.841 290.928 158.264 290.695 147 289.13C142.708 288.534 136.822 288.756 133.214 286.107C126.782 281.385 129 269.92 129 263L129 201C153.045 201 178.054 199.001 202 201.094C208.853 201.693 209.928 206.19 213.954 210.681C215.27 212.149 217.421 213.333 219.262 211.953C222.083 209.839 221.806 203.161 222.272 200C223.885 189.045 226.129 178.042 227 167C215.135 167.141 214.187 181.585 203 184.645C194.387 187.001 184.832 186 176 186L129 186L129 113C152.435 113 178.526 110.02 201 118.09C206.906 120.211 212.468 123.65 216.91 128.09C223.082 134.26 224.489 139.966 234 140L233 101L87 101M1249 101C1249 104.221 1248.23 108.762 1250.03 111.61C1252.67 115.792 1257.14 116.55 1258.47 122.001C1259.85 127.649 1259 134.221 1259 140C1259 146.733 1259.82 153.311 1259.99 160C1260.93 198.367 1261.54 237.755 1258.91 276C1258.27 285.302 1252.03 291.836 1252 301L1342 301L1342 293C1331.29 292.155 1320.65 289.922 1310 289.089C1304.49 288.659 1297.51 288.954 1293.28 284.721C1287.99 279.432 1290 268.804 1290 262L1290 201L1339 201C1347.14 201 1355.93 200.07 1364 201.189C1372.89 202.422 1372.84 212.7 1382 213C1382.66 197.571 1387.68 182.451 1388 167C1376.32 167.139 1374.53 182.041 1363 184.956C1354.73 187.048 1345.47 186 1337 186L1290 186L1290 113C1313.47 113 1339.51 109.987 1362 118.09C1367.95 120.235 1373.48 123.573 1377.96 128.04C1384.04 134.101 1385.71 139.967 1395 140L1394 101L1249 101M972 111C977.688 114.687 974.685 124.598 973 130L983 130C981.732 125.688 977.314 110.222 986 110.222C992.196 110.222 992.097 121.844 990.667 125.889C990.122 127.429 988.705 128.555 988 130L1000 130C999.02 128.216 999.093 128.406 997 128C997 123.618 995.532 115.877 998.603 112.323C1001.6 108.857 1006.02 111.454 1007.4 115.019C1009.37 120.148 1006.68 125.281 1005 130L1016 130C1015.05 128.03 1013.77 126.119 1013.3 123.959C1011.76 116.914 1015.67 106.595 1005 106.11C1003.67 106.049 1002.26 106.361 1001.02 106.834C999.123 107.563 997.616 108.806 996 110C992.556 104.105 985.956 105.989 981 109L980 105C976.365 106.226 973.308 107.228 972 111M810 108L810 110C814.837 114.737 813 123.642 813 130L822 130C821.02 128.216 821.093 128.406 819 128L819 106C815.917 106.416 812.994 107.158 810 108M856 126C852.926 125.998 840.767 125.627 843.921 119.417C845.552 116.207 852.833 114.317 856 113C855.128 111.175 854.47 109.74 852.851 108.409C839.536 97.4597 828.832 126.522 845.001 130.387C846.657 130.783 848.37 130.647 849.995 130.183C852.66 129.421 854.244 128.011 856 126M924 108L924 110C928.742 115.023 927 123.483 927 130L936 130C931.006 122.082 931.837 115.202 933 106C929.917 106.416 926.994 107.158 924 108M938 123C938.07 125.124 937.897 127.552 939.603 129.144C944.514 133.726 955.265 129.901 955.427 123.001C955.608 115.312 944.22 116.476 943 109C947.127 109.133 949.218 109.911 952 113C955.47 104.497 942.301 104.224 939.029 110.109C934.085 118.998 946.497 118.184 948.824 123.259C950.557 127.039 945.642 127.886 943.26 126.436C941.254 125.215 940.258 123.787 938 123M1027 106.742C1013.29 112.03 1019.99 135.602 1034 129.99C1048.5 124.181 1042.66 100.705 1027 106.742M1104 108C1107.15 116.06 1106.17 121.569 1106 130L1115 130C1114.02 128.216 1114.09 128.406 1112 128L1112 106C1109.23 106.41 1106.67 107.149 1104 108M1136 125C1128.81 126.334 1124.85 125.61 1121 119L1136 113L1136 111C1133.78 109.557 1131.54 107.607 1129 106.753C1113.85 101.658 1110.8 131.641 1127 130.812C1128.75 130.723 1130.42 130.122 1131.94 129.281C1133.97 128.159 1134.91 126.941 1136 125M264 109.534C250.66 112.713 254.755 132.264 268 129.605C283.084 126.577 279.042 105.949 264 109.534z"/>
                <path style="fill:rgb(141, 71, 71); stroke:none;" d="M841 117L849 114L847 109C842.714 110.273 841.485 112.665 841 117M1054.11 110.032C1045.43 114.785 1053 130.55 1061.68 124.82C1068 120.646 1062.73 105.31 1054.11 110.032M1123 109C1121.82 111.43 1121.27 113.313 1121 116C1123.47 115.574 1125.65 114.868 1128 114C1127.05 110.95 1126 110.088 1123 109M1147.04 109.758C1137.69 113.258 1143.32 129.134 1152.94 125.254C1161.19 121.926 1156.11 106.365 1147.04 109.758z"/>
                <path style="fill:#a9a9a9; stroke:none;" d="M1425 109.559C1411.85 112.988 1416.77 132.97 1430 129.497C1444.28 125.746 1439.46 105.789 1425 109.559z"/>
                <path style="fill:rgb(141, 71, 71); stroke:none;" d="M1026.43 111.032C1019.37 115.76 1028.44 130.984 1035.68 125.356C1042.31 120.208 1033.82 106.086 1026.43 111.032z"/>
                <path style="fill:#a9a9a9; stroke:none;" d="M1158 231C1146.36 234.44 1131.13 232 1119 232L1039 232L778 232L778 244L1158 244C1147.06 252.908 1137.19 263.218 1127 272.961C1116.77 282.738 1106.02 292.003 1096 302C1091.63 306.363 1076.13 315.974 1081.34 322.98C1089 333.289 1101.45 314.551 1107 309L1154 262L1168 248C1170.37 245.626 1173.78 243.085 1175.25 240C1176.59 237.17 1174.77 235.054 1172.94 233C1169.19 228.811 1164.97 224.973 1161 221L1107 167C1102.34 162.341 1097.78 157.558 1093 153.02C1090.8 150.927 1088.27 148.17 1085 149.752C1071.98 156.069 1089.78 167.942 1095 172.96C1109.45 186.877 1123.96 201.016 1139 214.286C1145.28 219.821 1150.5 227.108 1158 231M237 197C237.008 199.202 236.538 202.409 238.028 204.258C239.625 206.241 242.858 206.046 244.985 207.175C248.669 209.131 251.143 212.925 251.786 217C252.849 223.736 252 231.189 252 238C252 254.367 252.053 270.693 250.91 287C250.483 293.098 249.004 298.825 249 305C263.323 303.18 277.61 302.136 292 301L292 293C287.309 292.987 280.002 293.417 277.179 288.772C273.96 283.477 276.068 273.012 275.996 267C275.781 248.886 274.785 231.151 276.025 213C276.458 206.656 277.341 200.337 277.826 194C278.009 191.607 278.03 188.482 275.682 187.068C272.627 185.228 267.99 187.702 265 188.656C255.805 191.59 246.396 194.826 237 197M458 279C439.519 284.044 421.128 290.688 404 277.471C400.876 275.06 398.111 272.164 395.761 269C392.94 265.202 385.706 254.422 388.212 249.418C390.504 244.842 402.45 242.053 407 240.316C418.465 235.941 429.717 230.692 441 225.85C446.822 223.351 452.743 220.112 459 219C458.466 211.925 452.728 208.666 448 203.996C435.642 191.79 421.903 181.863 404 188.383C394.11 191.985 382.057 198.623 375.529 207.004C366.408 218.716 364.808 237.694 366.17 252C368.695 278.531 382.461 302.656 412 303.961C425.327 304.549 436.785 300.431 448 293.305C454.03 289.473 459.789 286.885 458 279M1410 304C1424.66 304 1439.41 302.152 1454 301C1453.97 298.785 1454.37 295.589 1452.4 294.028C1446.59 289.441 1438.04 294.806 1437.09 283.999C1436.17 273.487 1437 262.553 1437 252C1437 239.747 1436.25 227.224 1437.09 215C1437.5 208.994 1438.26 202.993 1438.83 197C1439.08 194.414 1439.54 190.605 1437.97 188.333C1435.93 185.377 1431.77 186.906 1429 187.721C1421.97 189.789 1415.06 192.203 1408 194.152C1405.28 194.902 1400.97 195.586 1399.6 198.419C1396.33 205.219 1404.2 205.559 1407.9 208.009C1411.36 210.311 1412.73 213.999 1412.96 218C1414.08 237.51 1414.25 258.505 1412.91 278C1412.31 286.706 1410.07 295.256 1410 304M1621 286C1620.62 283.449 1620.01 281.373 1619 279C1608.38 281.905 1598.32 286.219 1587 285.945C1565.97 285.437 1552.32 266.681 1548 248C1554.93 246.769 1561.56 243.052 1568 240.281C1578.94 235.574 1590.05 231.246 1601 226.573C1607.27 223.897 1613.34 220.582 1620 219C1619.4 211.005 1611.72 205.368 1606 200.425C1598.85 194.246 1591.57 188.26 1582 186.468C1568.08 183.86 1548.56 194.25 1539.19 204.093C1531.83 211.816 1529.31 222.78 1527.87 233C1524.22 258.955 1531.07 291.585 1559 300.91C1573.77 305.84 1588.11 304.574 1602 297.63C1608.67 294.293 1614.36 289.305 1621 286z"/>
                <path style="fill:rgb(141, 71, 71); stroke:none;" d="M386 239C400.572 235.539 413.831 226.823 428 222C425.692 210.071 406.867 193.633 395.188 204.344C386.28 212.514 386.001 227.847 386 239M1547 239C1561.31 236.457 1575.45 227.258 1589 222C1586.85 210.109 1567.95 193.137 1556.33 204.344C1547.85 212.524 1547.23 227.989 1547 239z"/>
                <path style="fill:#a9a9a9; stroke:none;" d="M1256 477C1256.14 480.252 1255.97 486.705 1259.43 488.393C1264.26 490.745 1272.3 486.389 1277 485.156C1291.18 481.44 1305.7 478.308 1320 475C1310.15 486.554 1302.42 500.373 1294 513L1247.33 583C1236.41 599.387 1225.26 615.612 1214.33 632C1208.74 640.392 1202.01 648.715 1198 658C1196.44 653.065 1196.43 648.053 1195.54 643C1192.72 627.042 1190.03 611.083 1188 595C1183.94 595.323 1180 596.225 1176 597C1176.39 606.094 1179.16 615.116 1181 624C1184.65 641.664 1188.57 659.293 1192 677C1218.93 675.841 1245.01 664.159 1272 663L1270 650C1259.26 651.447 1248.52 654.909 1238 657.525C1228.02 660.007 1217.75 661.692 1208 665C1216 652.029 1225.21 639.691 1233.67 627L1293 538C1299.89 527.664 1306.61 517.182 1313.72 507C1319.09 499.311 1325.27 491.65 1329 483C1332.12 488.626 1331.79 494.812 1333 501C1335.84 515.568 1337.29 530.414 1340 545C1344 544.225 1347.94 543.323 1352 543C1350.41 522.976 1344.26 502.604 1340.01 483C1339.06 478.592 1339.15 465.775 1334.57 463.618C1329.37 461.173 1318.42 465.597 1313 466.576C1294.23 469.962 1275 475.487 1256 477M612 470C615.126 478.247 621.453 485.68 626.333 493L654.485 535L709.333 617C719.762 632.642 729.543 649.095 741 664C720.023 661.335 699.961 652.709 679 650C678.677 654.063 677.775 658.003 677 662C691.945 667.059 709.416 668.682 725 671.286C735.858 673.099 746.98 676.772 758 677C761.465 650.166 771.798 623.955 774 597L762 595C757.175 615.034 754.598 636.553 752 657C723.065 614.109 694.368 571.053 665.667 528C651.56 506.84 635.367 486.213 623 464L612 470M1523 493C1526.87 491.331 1530.32 489.038 1534 487L1534 524L1539 524L1539 480C1531.41 480.41 1523.27 484.843 1523 493M1753 501L1749 501L1749 505L1753 505L1753 522L1749 522L1749 524L1763 524L1763 522C1755.95 519.859 1758 511.02 1758 505L1764 505L1764 501L1758 501C1758 496.622 1756.59 488.772 1761.23 486.219C1763.98 484.701 1772.57 489.936 1773.08 486.681C1774.08 480.362 1764.03 481.471 1761 483.229C1754.12 487.226 1753.06 493.673 1753 501M1828 485L1828 487C1832.89 490 1832 494.796 1832 500C1827.09 500.001 1822.24 499.651 1818.1 502.804C1810.47 508.626 1811.38 524.321 1823 524.446C1826.51 524.484 1829.37 522.001 1832 520L1832 525C1834.86 524.35 1837.32 523.193 1840 522L1840 520C1836.31 516.386 1837 511.903 1837 507C1837 498.249 1836.9 489.683 1838 481C1834.43 481.818 1831.36 483.561 1828 485M1859 501L1855 501C1855.84 503.626 1856.37 504.161 1859 505L1859 522L1855 522L1855 524L1869 524L1869 522C1861.76 519.803 1864 510.158 1864 504L1870 504L1870 501L1865 501C1865 496.695 1863.47 488.512 1868.15 486.117C1870.91 484.703 1874.93 485.844 1878 485L1878 483C1865.5 477.091 1859.09 490.59 1859 501M1876 501L1872 501L1872 505L1876 505C1876 512.701 1876.1 517.492 1872 524L1886 524L1886 522L1881 522L1881 505C1883.21 504.906 1884.89 504.644 1887 504L1887 502C1884.89 501.356 1883.2 501.094 1881 501C1881 496.502 1879.61 486.311 1886.05 485.527C1888.29 485.255 1890.87 486.438 1893 487C1893.56 485.199 1893.82 483.878 1894 482C1880.72 479.58 1876 489.465 1876 501M1423 482C1425.69 495.113 1427.05 511.006 1423 524L1442 524L1442 522C1439.12 521.634 1434.77 521.606 1432.6 519.4C1429.34 516.073 1431 507.315 1431 503C1437.11 503 1444.29 501.553 1449 506C1451.22 503.086 1451.33 499.576 1452 496C1444.44 499.279 1439.29 500 1431 500L1431 485C1440.15 485.001 1445.09 486.997 1453 491L1453 482L1423 482M1466 488C1470.45 490.456 1470 494.317 1470 499C1470 507.858 1470.66 516.481 1468 525C1471.69 524.121 1475.21 524.003 1479 524C1471.96 512.832 1474.36 494.964 1476 482C1471.86 482.798 1468.32 484.394 1466 488M1778 488C1781.83 490.482 1781 494.795 1781 499C1781 507.859 1781.66 516.479 1779 525L1790 524C1789.02 522.217 1789.09 522.406 1787 522L1787 482C1783.09 483.129 1780.04 484.397 1778 488M1458.6 485.157C1456.87 486.314 1458.66 489.002 1460.4 487.843C1462.13 486.685 1460.34 483.999 1458.6 485.157M1851 484C1843.69 485.218 1849.78 491.309 1851 484M1579 504C1576.77 505.05 1574.99 506.043 1573.43 508.059C1564.91 519.046 1580.25 529.362 1589.94 521.586C1591.94 519.983 1592.94 518.248 1594 516C1597.76 521.489 1605.48 529.732 1610.11 520.025C1610.71 518.76 1610.78 517.354 1611 516C1606.16 517.458 1598.42 516.302 1601.13 509C1603.1 503.712 1608.41 499.986 1611 495L1602 495C1602.39 500.122 1599.74 503.387 1598 508C1594.67 505.736 1591.84 503.303 1588 502C1589.35 500.404 1590.74 499.012 1591.42 496.975C1595.53 484.509 1571.66 486.632 1575.73 498.975C1576.39 500.965 1577.72 502.4 1579 504z"/>
                <path style="fill:rgb(141, 71, 71); stroke:none;" d="M1585 500C1585.42 499.116 1586.23 497.91 1586.36 496.844C1587.31 489.135 1577.22 492.407 1582.16 498.39C1582.87 499.251 1584.08 499.535 1585 500z"/>
                <path style="fill:#a9a9a9; stroke:none;" d="M1669 503L1669 505C1672.49 508.413 1672 512.339 1672 517C1672 522.72 1672.92 529.356 1671.7 534.961C1671.16 537.43 1669.69 539.574 1669 542L1682 542L1682 539L1677 539L1677 524C1682.11 523.986 1687.67 523.971 1691.79 520.431C1697.71 515.335 1697.36 504.961 1689.98 501.434C1685.3 499.19 1681.16 500.475 1677 503L1677 499C1673.89 499.798 1671.65 501.174 1669 503M1719 505C1724.55 508.597 1722.01 518.741 1720 524L1729 524C1728.11 519.211 1725.85 509.202 1730.32 505.619C1733.6 502.986 1737.54 505.533 1738.57 509.044C1740.14 514.435 1738.09 519.204 1736 524L1748 524C1746.74 522.003 1744.9 520.31 1744.31 517.946C1742.59 511.042 1747.02 499.941 1736 500.124C1734.66 500.146 1733.27 500.506 1732.02 500.985C1730.14 501.71 1728.63 502.852 1727 504L1727 499C1723.45 500.307 1720.88 501.669 1719 505M1453 502L1453 504C1457.84 508.737 1456 517.642 1456 524L1465 524C1464.02 522.217 1464.09 522.406 1462 522L1462 500C1458.92 500.416 1455.99 501.158 1453 502M1499 519C1492.14 520.627 1487.39 519.007 1485 512C1490.06 511.241 1494.32 508.945 1499 507C1492.51 493.425 1477.47 503.314 1480.39 515.999C1482.57 525.44 1494.43 527.729 1499 519M1651 500.742C1637.41 505.986 1643.85 529.034 1658 523.837C1672.74 518.422 1666.55 494.747 1651 500.742M1718 519C1711 520.299 1706.54 519.748 1703 513L1718 507L1718 505C1715.77 503.55 1713.53 501.628 1711 500.742C1696.23 495.587 1692.76 524.607 1708 524.681C1709.7 524.69 1711.44 524.154 1712.98 523.468C1715.35 522.414 1716.69 521.138 1718 519M1765 502L1765 504C1769.84 508.737 1768 517.642 1768 524L1777 524C1771.8 515.756 1773.59 509.438 1774 500C1770.84 500.276 1768.02 501.042 1765 502M1811 519C1804.18 520.263 1798.58 519.764 1797 512C1801.96 511.145 1806.37 508.9 1811 507C1807.36 499.387 1795.28 497.155 1792.43 507.04C1791.35 510.799 1791.53 516.641 1793.74 519.945C1798.24 526.67 1807.27 525.621 1811 519M1842 502L1842 504C1846.84 508.737 1845 517.642 1845 524L1854 524C1853.02 522.217 1853.09 522.406 1851 522L1851 500C1847.92 500.416 1844.99 501.158 1842 502z"/>
                <path style="fill:rgb(141, 71, 71); stroke:none;" d="M1485 510L1492 508C1489.94 501.49 1485.42 504.529 1485 510M1703 510L1710 508C1707.94 501.49 1703.42 504.529 1703 510M1798 503C1796.83 505.74 1796.19 508.029 1796 511C1798.79 509.839 1801.39 508.522 1804 507C1802.09 504.677 1800.89 503.806 1798 503M1822.06 504.032C1813.68 508.451 1820.07 524.023 1828.85 518.968C1835.96 514.875 1830.63 499.512 1822.06 504.032M1582.04 505.256C1573.28 508.229 1577.42 522.856 1587 519.254C1596.09 515.835 1589.11 502.86 1582.04 505.256M1650.43 505.029C1643.89 509.47 1651.32 524.07 1658.85 519.954C1666.86 515.574 1658.32 499.677 1650.43 505.029M1677 521C1679.28 520.993 1681.77 521.197 1683.99 520.566C1690.19 518.802 1692.26 509.693 1686.85 505.742C1684.38 503.941 1679.27 503.145 1677.6 506.434C1675.71 510.164 1677 516.887 1677 521z"/>
                <path style="fill:#a9a9a9; stroke:none;" d="M869 524C872.809 521.887 876.477 519.562 880 517L880 555L885 555L885 511C877.122 511.234 869.276 515.561 869 524M979 524L985 524C985.568 520.355 987.048 517.381 991.005 516.453C995.41 515.42 1000.94 519.149 1000.2 524C998.258 536.651 979.996 541.78 979 555L1007 555L1007 550L987 550C994.181 542.759 1011.13 528.943 1004.82 517.043C998.287 504.728 979.821 511.764 979 524M820 512C816.945 514.191 813.871 515.7 812 519C816.454 521.456 815.998 525.317 816 530C816.004 538.383 817.035 547.08 814 555L825 555L825 552L821 552L821 524C821.006 519.982 822.206 515.418 820 512M768 513C768.689 515.426 770.164 517.57 770.701 520.039C773.048 530.825 771.169 544.435 769 555L788 555L788 552C785.327 551.998 781.663 552.538 779.318 550.972C775.152 548.19 777 538.349 777 534C784.109 534 790.139 534.388 797 536L797 527C790.26 530.236 784.403 530 777 530L777 516C781.195 516 785.944 515.408 790 516.652C793.175 517.626 795.939 519.732 799 521L799 513L768 513M803 515C804.277 518.844 806.723 518.844 808 515L803 515M1633 524C1635.17 523.536 1636.96 522.895 1639 522C1636.97 515.019 1630.59 517.106 1633 524M925 533L925 535C911.603 539.596 917.135 557.783 930.999 554.606C935.431 553.59 938.111 550.229 941 547C944.382 555.651 955.743 558.184 957 547C952.458 548.27 944.396 546.821 946.792 540C948.6 534.851 953.749 531.052 956 526L948 526C948.026 530.909 945.44 534.448 944 539L942 539C940.127 535.526 937.505 533.751 934 532C935.046 530.763 936.411 529.522 937.012 527.955C942.032 514.874 915.939 517.844 922.134 530.684C922.778 532.018 923.815 532.308 925 533z"/>
                <path style="fill:rgb(141, 71, 71); stroke:none;" d="M931 531C931.415 530.116 932.231 528.91 932.362 527.844C933.316 520.064 922.982 522.827 928.278 529.39C928.98 530.26 930.07 530.512 931 531z"/>
                <path style="fill:#a9a9a9; stroke:none;" d="M1112 527C1110.45 529.136 1109.14 530.451 1107 532C1109.37 538.173 1107.25 545.112 1109.6 550.941C1111.73 556.189 1117.57 554.968 1120 551C1112.95 548.859 1115 540.02 1115 534L1121 534L1121 531L1115 531L1115 527L1112 527M1047 533C1049.26 540.955 1050.58 546.508 1049 555L1059 555C1058.52 552.636 1058.36 552.482 1056 552C1056 547.996 1054.88 541.822 1057.18 538.317C1059.51 534.759 1062.95 535.83 1064 531C1060.09 531.292 1057.98 532.474 1055 535L1055 530L1047 533M1084 550C1080.74 550.403 1069.05 551.054 1072.04 544.221C1073.62 540.61 1080.57 538.98 1084 538C1080.63 530.862 1072.14 527.814 1066.74 535.213C1064.37 538.458 1064.49 544.276 1065.57 547.996C1068.02 556.416 1079.86 557.264 1084 550M799 535C804.246 538.401 802 549.324 802 555L811 555C810.02 553.217 810.092 553.406 808 553L808 531C804.185 531.315 801.116 531.642 799 535M845 550C841.775 550.589 830.007 550.973 833.037 544.271C834.617 540.775 841.706 539.278 845 538C841.843 531.31 833.06 528.065 828.009 535.214C825.755 538.404 825.539 543.29 826.394 546.999C828.444 555.889 840.5 557.901 845 550M1046 551C1039.3 550.981 1026.85 545.951 1034.56 537.318C1037.86 533.627 1043.16 536.233 1045 531C1041.63 531.009 1038.16 530.85 1035.01 532.279C1027.83 535.547 1024.28 545.142 1029.7 551.656C1033.68 556.437 1042.59 555.976 1046 551M1087 536C1093.03 534.833 1096.47 534.986 1097 542C1093.42 542.842 1088.85 544.632 1087.07 548.184C1083.19 555.926 1093.53 554.106 1097 552C1097.89 556.143 1100.88 554.166 1104 553C1101.8 547.253 1104.12 538.227 1100.82 533.434C1097.37 528.424 1088.65 531.066 1087 536M1142 550C1134.66 550.923 1130.01 550.596 1127 543C1131.96 542.145 1136.37 539.9 1141 538C1138.59 529.638 1126.67 528.597 1123.26 537.093C1121.36 541.828 1121.77 548.689 1125.57 552.427C1130.2 556.98 1138.72 555.002 1142 550M1159 536C1160.25 535.758 1161.75 535.258 1163.03 535.149C1166.34 534.865 1168.82 537.317 1166.95 540.672C1165.14 543.919 1160.77 544.716 1159.05 548.103C1155.08 555.919 1165.4 554.186 1169 552C1170 556.624 1174.49 554.129 1176 551C1170.74 547.491 1175.92 539.384 1172.82 534.148C1169.56 528.634 1160.72 530.55 1159 536z"/>
                <path style="fill:rgb(141, 71, 71); stroke:none;" d="M830 541C832.9 540.313 835.363 539.388 838 538C834.706 532.015 830.721 535.671 830 541M1071 534L1069 541C1072.02 540.465 1074.33 539.504 1077 538L1077 536C1074.9 534.957 1073.3 534.397 1071 534M1127 541L1135 538C1130.92 533.159 1127.45 535.089 1127 541M927.109 536.086C918.543 540.068 924.402 554.523 933.98 549.542C942.328 545.201 933.618 533.06 927.109 536.086z"/>
                <path style="fill:#a9a9a9; stroke:none;" d="M1793 549C1797.03 551.615 1796 556.614 1796 561C1791.37 561.013 1787 561.097 1783.04 563.854C1775.22 569.307 1774.77 583.834 1786 585.702C1789.9 586.35 1792.97 584.079 1796 582L1796 586C1799.97 585.502 1802.91 584.509 1805 581C1801.17 578.518 1802 574.206 1802 570L1802 542C1798.09 543.424 1794.4 544.898 1793 549M1546 551C1547.81 551.713 1548.93 551.987 1549.67 554.028C1550.51 556.373 1550 559.544 1550 562C1550 567.668 1551.01 574.417 1549.89 579.972C1549.48 581.972 1547.85 583.261 1547 585L1559 585C1558.02 583.217 1558.09 583.406 1556 583C1556 578.605 1554.54 570.893 1557.6 567.322C1562.35 561.792 1569.96 569.734 1569.83 574.999C1569.7 580.296 1564.46 581.522 1563 586C1578.69 583.896 1578.55 559.73 1561 562.143C1558.5 562.488 1557 563.56 1555 565L1555 543C1551.12 544.721 1547.4 546.857 1546 551M1642 547L1642 550C1648.07 555.056 1646.58 566.686 1645.71 574C1645.36 576.987 1643.93 581.749 1646.03 584.397C1647.71 586.525 1651.61 586.068 1654 585.982C1660.2 585.758 1666.4 582.18 1668.35 575.999C1670.47 569.247 1667.07 560.904 1659 561.318C1656.21 561.461 1653.54 562.965 1651 564L1651 543L1642 547z"/>
                <path style="fill:rgb(141, 71, 71); stroke:none;" d="M1167 544C1164.5 546.239 1163.51 547.68 1163 551C1167.14 550.31 1168.62 547.991 1167 544M1091 551L1096 551L1096 545C1092.51 546.057 1091.57 547.418 1091 551z"/>
                <path style="fill:#a9a9a9; stroke:none;" d="M1537 557L1531 563C1534.32 568.965 1529.54 588.14 1540.96 585.176C1542.42 584.796 1543.74 583.762 1545 583C1543.32 582.209 1541.04 581.799 1539.74 580.4C1536.42 576.847 1538 568.495 1538 564L1545 564L1545 562L1538 562C1537.91 560.036 1537.78 558.769 1537 557M1828 557L1822 563C1825.39 569.098 1822.13 575.823 1824.6 581.941C1826.72 587.18 1832.46 585.824 1835 582C1826.61 580.662 1829 570.561 1829 564L1836 564L1836 562L1829 562C1828.91 560.036 1828.78 558.769 1828 557M1464 582C1457.09 581.938 1445.15 575.261 1453.32 567.333C1456.54 564.204 1460.83 565.713 1464 562C1461.2 561.197 1458.85 560.911 1456 561.854C1448.27 564.41 1442.99 573.094 1447.18 580.956C1450.76 587.665 1459.55 587.04 1464 582M1467 567C1469.3 566.326 1469.77 566.035 1471 564C1471.95 564.478 1473.11 564.745 1473.84 565.61C1479.73 572.56 1468.72 574.077 1466.79 579.209C1463.77 587.215 1473.35 585.005 1477 583L1477 586L1484 584C1481.69 577.966 1484.04 569.495 1480.82 564.228C1477.18 558.276 1468.66 561.484 1467 567M1486 566C1493.68 569.024 1489.5 579.87 1487 585L1497 585C1495.26 580.448 1493.55 573.964 1495.6 569.189C1497.76 564.166 1503.64 565.48 1505.4 570.019C1507.39 575.193 1505.04 580.948 1504 586C1507.74 585.969 1511.3 585.467 1515 585C1513.74 583.003 1511.9 581.31 1511.31 578.946C1509.73 572.611 1513.99 561.672 1504 561.294C1502.66 561.243 1501.25 561.696 1500 562.13C1497.92 562.861 1495.96 563.997 1494 565L1494 561C1490.6 561.985 1487.97 562.997 1486 566M1596 581C1589.06 581.486 1585.06 580.8 1582 574L1596 569C1593.44 560.065 1581.56 558.925 1577.89 568.04C1576.21 572.218 1576.54 578.353 1579.43 581.891C1583.91 587.365 1592.32 586.901 1596 581M1598 566C1603.55 569.597 1601.01 579.741 1599 585L1608 585C1607.13 580.296 1604.35 567.567 1611.06 565.89C1614.39 565.057 1616.94 568.096 1617.68 571.005C1619.01 576.234 1616.6 581.186 1615 586C1619.08 585.989 1622.96 585.51 1627 585C1625.74 583.003 1623.9 581.31 1623.31 578.946C1621.67 572.351 1625.81 560.811 1615 561.257C1613.64 561.313 1612.27 561.838 1611.02 562.342C1609.26 563.06 1607.64 564.045 1606 565L1606 561C1602.49 561.808 1599.98 562.933 1598 566M1691 581C1683.8 581.562 1679.39 581.242 1676 574C1681.2 572.577 1686.13 570.305 1691 568C1689.54 565.977 1688.17 564.078 1685.98 562.742C1672.35 554.409 1663.87 583.571 1680 585.732C1682 586 1684.1 585.561 1685.98 584.893C1688.35 584.05 1689.66 583.025 1691 581M1721 562C1723.96 566.699 1725.8 570.07 1724.85 575.985C1724.31 579.349 1720.92 583.087 1717.43 580.353C1713.12 576.963 1715 566.839 1715 562L1707 563C1707.69 565.426 1709.16 567.57 1709.7 570.039C1711 576.019 1707.75 585.643 1717 585.809C1718.35 585.833 1719.75 585.311 1720.98 584.797C1722.75 584.055 1724.36 582.986 1726 582L1726 586C1728.17 585.536 1729.96 584.895 1732 584C1730.1 575.914 1729.95 569.313 1731 561L1721 562M1737 579C1737.06 580.701 1736.85 582.846 1738.03 584.262C1741.57 588.508 1751.41 585.461 1753.25 580.895C1756.68 572.411 1745.96 573.01 1742.75 568.509C1741.42 566.632 1742.92 564.732 1745.02 564.747C1747.42 564.764 1749.9 567.012 1752 568L1752 562C1746.55 561.315 1729.82 562.854 1737.74 572.581C1740.14 575.526 1746.4 575.354 1747.65 579.18C1750.03 586.454 1738.52 579.766 1737 579M1776 582C1769.34 579.393 1764.37 582.397 1761 574L1775 569C1772.68 560.9 1762.91 558.837 1757.86 566.188C1752.3 574.278 1758.41 588.092 1769 585.582C1771.61 584.962 1773.78 583.441 1776 582M1846 561.707C1831.77 566.403 1836.99 590.204 1852 585.145C1866.46 580.268 1861.12 556.72 1846 561.707z"/>
                <path style="fill:rgb(141, 71, 71); stroke:none;" d="M1582 572L1590 569C1585.69 563.826 1582.35 565.772 1582 572M1676 572L1684 569L1684 567C1678.88 564.68 1676.61 566.606 1676 572M1761 572L1769 569C1764.67 563.813 1761.21 565.705 1761 572M1786.21 565.743C1778.3 569.269 1783.51 584.166 1791.94 581.214C1800.1 578.358 1795.99 561.391 1786.21 565.743M1844.43 566.042C1837.5 570.558 1846.01 586.027 1853.57 580.968C1860.67 576.214 1852.06 561.071 1844.43 566.042M1652 581C1654.21 581.172 1656.79 581.87 1658.98 581.512C1660.75 581.225 1662.11 580.308 1663.14 578.851C1665.81 575.08 1665.03 569.505 1660.89 567.179C1657.94 565.519 1652.48 565.231 1651.32 569.148C1650.87 570.659 1650.98 572.443 1651.04 573.998C1651.13 576.373 1651.57 578.671 1652 581z"/>
                <path style="fill:#a9a9a9; stroke:none;" d="M1042 577L1042 579C1046.23 582.815 1046 586.587 1046 592C1041.13 592.001 1036.25 591.611 1032.19 594.804C1024.95 600.492 1025.03 613.602 1035 616.328C1039.09 617.446 1042.51 614.697 1046 613L1046 617C1049.66 616.214 1052.86 615.162 1055 612L1051 612C1051 598.926 1050.97 586.01 1052 573C1048.52 574.004 1045.34 575.61 1042 577M967 594L963 594L963 597L967 597L967 614L963 614L963 616L977 616L977 614C969.948 611.859 972 603.02 972 597L978 597L978 594L972 594C972 589.185 970.758 581.905 975.228 578.619C978.721 576.051 980.969 578.973 984.226 579.933C985.385 580.274 986.848 580.152 987.083 578.682C988.123 572.168 976.818 574.29 974.015 576.009C967.211 580.183 967.001 586.869 967 594M992 580C996.732 582.61 996 587.098 996 592C996.001 600.843 996.875 608.928 993 617L1005 616C997.811 604.601 1001 587.363 1001 574C997.282 575.178 994.136 576.673 992 580M1070 594L1070 597L1073 597L1073 614L1069 614L1069 616L1083 616L1083 614L1079 614L1079 597L1084 597L1084 593L1079 593C1079 588.573 1077.33 579.355 1083.06 577.788C1085.53 577.111 1088.6 578.452 1091 579C1091.93 572.902 1085.16 573.371 1081 575.573C1077.58 577.388 1074.97 580.293 1073.8 584.001C1072.57 587.914 1073.73 591.58 1070 594M1090 594L1086 594L1086 597L1090 597C1090 603.02 1092.05 611.859 1085 614L1085 616L1100 616L1100 614L1095 614L1095 597L1101 597L1101 594L1095 594C1095 589.478 1093.41 580.843 1098.23 578.222C1102.55 575.87 1106.04 580.223 1109 575C1095.08 571.688 1090 581.813 1090 594z"/>
                <path style="fill:rgb(141, 71, 71); stroke:none;" d="M1476 575C1475.1 575.456 1473.87 575.747 1473.18 576.606C1470.08 580.438 1474.67 582.99 1475.85 578.101C1476.07 577.208 1475.97 575.846 1476 575z"/>
                <path style="fill:#a9a9a9; stroke:none;" d="M1061.6 577.157C1059.87 578.314 1061.66 581.002 1063.4 579.843C1065.13 578.686 1063.34 575.999 1061.6 577.157M883 595L883 597C886.589 600.801 886 605.007 886 610C886 618.71 886.189 625.843 883 634L896 634C894.554 631.717 893.69 631.418 891 631L891 616C896.625 615.996 902.508 616.101 906.772 611.775C912.415 606.05 910.427 596.022 902.996 593.01C899.155 591.453 895.672 592.662 892 594C890.837 588.573 885.876 592.958 883 595M933 597C938.549 600.597 936.015 610.741 934 616L944 616C942.217 611.346 940.232 603.833 943.028 599.149C947.473 591.703 953.101 601.122 952.955 606C952.853 609.432 951.759 612.68 951 616L962 616C960.741 614.003 958.903 612.31 958.313 609.946C956.571 602.963 961.01 592.221 950 592.149C948.661 592.14 947.265 592.51 946.025 592.985C944.141 593.707 942.633 594.852 941 596L941 591C937.447 592.307 934.877 593.669 933 597M865.004 592.858C851.641 598.321 857.97 621.522 871.999 615.987C886.71 610.183 880.302 586.604 865.004 592.858M932 613C929.335 612.044 926.685 613.128 924.004 612.307C920.498 611.234 918.577 608.03 917 605L932 599C930.535 596.971 929.162 595.091 926.982 593.738C911.184 583.94 905.1 619.687 924 616.569C926.903 616.091 929.503 614.45 932 613M979 594L979 597L982 597L982 617L991 616L991 614L987 614C987 606.567 987.068 599.374 988 592L979 594M1025 612C1021.97 611.998 1008.96 611.815 1012.83 605.414C1014.79 602.174 1021.64 600.399 1025 599C1024.12 597.198 1023.47 595.851 1021.85 594.548C1004.94 580.906 998.305 622.533 1019 616.345C1021.65 615.55 1023.26 614.022 1025 612M1056 594C1059.31 601.407 1059 607.926 1059 616L1068 616C1067.02 614.217 1067.09 614.406 1065 614L1065 592L1056 594z"/>
                <path style="fill:rgb(141, 71, 71); stroke:none;" d="M919 595C917.818 597.43 917.27 599.313 917 602L925 600C923.483 597.082 922.107 596.078 919 595M1036.06 596.068C1027.62 600.225 1033.61 615.363 1042.85 611.257C1050.27 607.963 1044.63 591.85 1036.06 596.068M864.318 597.032C857.723 601.31 865.381 615.843 872.852 611.929C880.983 607.669 872.268 591.874 864.318 597.032M891 597L891 613C894.243 612.997 898.091 613.461 900.852 611.397C904.896 608.373 905.225 600.825 900.852 597.942C897.901 595.997 894.282 596.653 891 597M1010 603L1018 600C1014.64 593.929 1010.85 597.742 1010 603z"/>
                <path style="fill:#a9a9a9; stroke:none;" d="M1707 616L1713 616C1713.64 612.848 1714.69 609.825 1718.04 608.619C1723.24 606.751 1728.63 611.706 1727.52 617C1724.97 629.181 1707.98 633.886 1707 647L1734 647L1734 642L1715 642C1721.24 633.87 1735.6 624.786 1733.76 613C1731.3 597.271 1707.8 601.394 1707 616M1610 605C1612.69 618.113 1614.05 634.006 1610 647L1629 647L1629 645C1617.16 644.023 1619 635.601 1619 626C1625.78 626 1631.46 626.464 1638 628L1639 619C1631.78 622.402 1627.11 623 1619 623L1619 608C1627.8 608.001 1632.45 609.903 1640 614L1640 605L1610 605M1653 608C1653.87 610.571 1656.02 612.393 1656.69 615.054C1659.02 624.427 1657.83 638.936 1655 648C1658.7 647.533 1662.26 647.031 1666 647C1658.81 635.601 1662 618.364 1662 605L1653 608M1644 608L1644 610C1645.8 610.562 1647.12 610.824 1649 611L1649 607C1647.12 607.176 1645.8 607.438 1644 608M1831 607L1831 611L1836 611C1835.03 608.036 1834.07 607.497 1831 607M853 614C852.737 613.097 852.655 611.796 851.971 611.007C847.239 605.549 842.821 615.574 849.859 615.143C850.8 615.086 852.247 614.296 853 614M1557 626C1562.92 629.84 1558.13 638.203 1560.6 643.852C1562.79 648.856 1568.89 646.448 1571 643C1562.83 641.697 1565 632.433 1565 626L1571 626L1571 623L1565 623L1565 619C1561.47 620.62 1558.94 622.619 1557 626M1439 626L1439 628C1443.79 632.688 1442.13 640.91 1441 647L1451 647C1450.02 645.217 1450.09 645.406 1448 645C1448 640.763 1446.76 634.019 1449.18 630.317C1451.51 626.759 1454.95 627.83 1456 623C1452.09 623.292 1449.98 624.474 1447 627L1447 622C1444.01 622.944 1441.62 624.286 1439 626M1497 628C1503.47 631.566 1501.23 641.19 1499 647L1509 647C1506.75 642.315 1503.68 635.127 1507.6 630.313C1510.22 627.096 1513.42 627.289 1515 623C1510.41 623.253 1508.19 624.756 1505 628L1505 622C1501.45 623.307 1498.88 624.669 1497 628M1839 628L1843 628C1843 635.102 1843.1 640.543 1840 647L1850 647C1848.64 642.626 1844.67 624.799 1854.94 627.712C1862.16 629.76 1858.48 642.259 1857 647L1868 647C1867.14 644.46 1864.89 642.603 1864.35 639.946C1863.55 635.998 1865.69 632.019 1864.57 628.019C1862.35 620.123 1853.07 623.452 1848 626L1848 622C1844.09 623.129 1841.04 624.397 1839 628M1476 642C1469.27 643.245 1464.06 642.318 1462 635C1466.92 634.123 1471.28 631.607 1476 630C1472.8 623.305 1463.87 620.222 1458.74 627.214C1456.42 630.374 1456.42 636.334 1457.43 639.996C1459.79 648.5 1471.92 649.172 1476 642M1497 643C1494.15 642.998 1490.79 643.397 1488.1 642.258C1483.57 640.331 1481.47 633.243 1484.74 629.322C1488.14 625.25 1493.15 628.605 1496 623C1492.62 623.009 1489.18 622.889 1486 624.228C1478.91 627.212 1474.78 637.409 1480.43 643.772C1484.55 648.409 1493.56 648.024 1497 643M1535 642C1527.86 642.898 1523.92 642.64 1520 636C1525.01 634.055 1529.84 631.487 1535 630C1528.49 617.194 1513.35 625.193 1515.22 638C1516.65 647.839 1529.88 650.208 1535 642M1537 628L1538 629L1540 629C1542.74 626.5 1547.86 626.586 1546.29 631.819C1544.81 636.759 1536.06 637.422 1537.49 643.853C1538.81 649.763 1552.61 646.6 1555 643C1548.86 639.022 1554.56 630.689 1550.97 625.318C1547.45 620.038 1539.22 623.771 1537 628M1592 642C1588.2 642.702 1584.33 643.584 1581.17 640.686C1579.79 639.425 1578.49 637.479 1579.75 635.699C1581.91 632.64 1588.59 631.159 1592 630C1588.8 623.305 1579.87 620.222 1574.74 627.214C1572.42 630.374 1572.42 636.334 1573.43 639.996C1575.79 648.5 1587.92 649.172 1592 642M1641 625L1641 627C1646.2 632.092 1643.52 640.456 1643 647L1652 647C1648.25 639.188 1649 631.558 1649 623C1646.07 623.254 1643.71 623.851 1641 625M1686 642C1679.02 643.276 1674.74 641.924 1672 635C1677.27 634.093 1681.89 631.46 1687 630C1685.71 627.766 1684.26 625.94 1681.98 624.562C1668.36 616.309 1660.36 643.22 1674.02 646.681C1675.88 647.155 1678.12 647.039 1680 646.656C1683.1 646.022 1684.57 644.656 1686 642M1756 628C1757.25 627.757 1758.76 627.255 1760.04 627.149C1763.1 626.895 1766.78 629.032 1764.91 632.622C1763.12 636.061 1758.26 636.732 1756.34 640.209C1752.13 647.815 1762.4 646.375 1766 644C1767.02 648.718 1772.42 646.218 1774 643C1768.19 639.231 1773.11 631.453 1769.97 626.148C1766.54 620.358 1758.48 623.283 1756 628M1783 641C1779.04 643.924 1776.46 647.913 1783 649C1781.5 650.294 1779.83 651.52 1778.72 653.194C1775.7 657.722 1778.08 662.749 1783.02 664.347C1788.26 666.043 1796.17 665.376 1800.98 662.721C1811.6 656.862 1804.98 647.847 1796 646.096L1785 644C1790.77 639.834 1799.97 640.339 1799.87 631.025C1799.85 629.292 1799.4 627.67 1799 626L1805 626L1805 623C1798.2 623 1788.21 621.168 1782.04 624.457C1774.49 628.486 1776.52 637.445 1783 641M1808 629C1809.72 628.518 1812.15 626.945 1813.94 627.148C1817.22 627.519 1816.89 631.66 1815.39 633.621C1813.38 636.256 1809.65 637.145 1808.05 640.184C1804.13 647.626 1814.34 646.332 1818 645C1820.16 647.266 1822.28 646.13 1825 645C1822.79 639.238 1824.95 631.178 1821.97 626.148C1818.44 620.174 1809.04 622.878 1808 629M1827 625L1827 627C1831.91 631.812 1830.16 640.746 1829 647L1839 647C1833.8 638.756 1835.59 632.438 1836 623C1832.84 623.276 1830.02 624.041 1827 625z"/>
                <path style="fill:rgb(141, 71, 71); stroke:none;" d="M1463 626C1461.97 628.398 1461.32 630.416 1461 633C1464.02 632.465 1466.33 631.504 1469 630C1467.09 627.677 1465.89 626.806 1463 626M1520 633C1522.8 632.234 1525.37 631.23 1528 630C1523.92 625.159 1520.45 627.088 1520 633M1579 626L1577 633C1580.02 632.465 1582.33 631.504 1585 630C1583.32 627.386 1582.04 626.635 1579 626M1672 633C1674.8 632.234 1677.37 631.23 1680 630C1675.92 625.159 1672.45 627.088 1672 633M1786.19 626.786C1778.95 629.472 1783.86 641.031 1790.79 638.238C1797.95 635.351 1793.25 624.164 1786.19 626.786M1546 636C1543.11 638.613 1542.14 640.145 1543 644C1546.82 642.465 1547.56 639.757 1546 636M1765 637C1764.19 637.297 1762.86 637.51 1762.16 638.184C1758.49 641.707 1763.55 645.489 1764.85 640.101C1765.07 639.207 1764.97 637.847 1765 637M1813 644C1816.58 642.563 1816.88 640.714 1817 637C1813.06 638.195 1812.11 640.014 1813 644M1786.06 651.032C1781.5 653.485 1782.24 658.558 1786.11 661.258C1789.36 663.528 1794.48 663.463 1797.89 661.543C1808.59 655.517 1792.67 647.475 1786.06 651.032z"/>
                <path style="fill:#a9a9a9; stroke:none;" d="M45 702L45 1114L1905 1114L1905 702L45 702z"/>
                <path style="fill:rgb(141, 71, 71); stroke:none;" d="M54 711L54 1105L1896 1105L1896 711L54 711z"/>
                <path style="fill:#a9a9a9; stroke:none;" d="M1315 784C1329.56 784.31 1332 794.431 1332 807C1332 821.049 1331 834.997 1331 849C1318.81 847.459 1304.22 845.285 1292 847.326C1274.18 850.301 1256.33 864.722 1247.46 880C1230.09 909.935 1241.38 952.091 1276 962.409C1280.76 963.828 1286 965.068 1291 964.945C1306.21 964.573 1318.91 949.192 1332 943C1332.23 948.339 1332.78 953.644 1333.02 958.996C1333.11 961.073 1333.23 963.597 1335.32 964.716C1338.65 966.502 1343.93 963.034 1347 961.8L1364 955C1366.24 954.101 1369.46 953.336 1370.97 951.301C1372.42 949.353 1371.99 946.275 1372 944C1367.79 944 1361.89 945.013 1358.34 942.258C1354.56 939.315 1355 934.273 1355 930L1355 899C1355.06 864.425 1355.94 829.659 1356 795C1356.01 786.334 1357.22 777.629 1357.91 769C1358.16 765.956 1359.51 761.214 1358.36 758.33C1355.57 751.359 1347.55 758.021 1344 760.308C1337.9 764.232 1331.52 767.586 1325 770.742C1322.25 772.072 1317.88 773.057 1316.03 775.649C1314.45 777.862 1315 781.438 1315 784M950 855L931 855L931 868L950 868C950 887.387 949 906.651 949 926C949 932.14 951.2 943.697 947.397 948.856C943.778 953.765 934.543 953.762 929 954L929 962L997 962L997 954C990.718 953.948 978.726 954.448 974.603 948.856C970.8 943.697 973 932.14 973 926L973 868L1000 868L1001 855L973 855C973 842.262 973.405 829.681 973.961 817C974.238 810.665 973.516 804.279 974.615 798C976.133 789.331 977.175 782.066 985.001 776.653C994.921 769.791 1013.41 772.812 1022.86 779.353C1026.79 782.076 1027.22 787.37 1032.02 789.258C1038.54 791.826 1047.19 788.419 1047.89 780.999C1048.47 774.78 1044.45 772.661 1040.71 768.626C1024.88 751.538 1000.53 757.55 983 769.079C973.135 775.565 962.752 784.352 957.238 795C954.376 800.528 953.478 806.928 952.579 813C950.522 826.885 950 840.97 950 855M1070 789C1073.97 789 1079.31 788.14 1082.66 790.742C1085.99 793.331 1086.25 798.134 1086.71 802C1087.97 812.44 1087 823.49 1087 834C1087 862.36 1087.71 890.629 1087.01 919C1086.8 927.964 1087.58 937.057 1086.91 946C1086.64 949.592 1085.73 952.968 1082.86 955.352C1081.05 956.851 1078.4 957.504 1077.03 959.498C1075.61 961.567 1076.01 964.629 1076 967C1093.83 964.734 1110.94 962 1129 962L1129 953C1124.26 953 1119.05 953.646 1115.13 950.427C1110.95 946.992 1111.01 941.955 1111 937L1111 907C1111 858.262 1107.89 808.381 1114 760C1108.17 757.844 1104.89 760.849 1100 763.947C1093.86 767.833 1087.49 771.484 1081 774.752C1077.8 776.361 1072.97 777.804 1070.64 780.637C1068.79 782.898 1069.8 786.346 1070 789M1465 855L1446 855L1446 868L1464 868L1464 926C1464 932.181 1466.17 943.587 1462.26 948.772C1458.59 953.639 1448.56 953.561 1443 954L1443 962L1511 962L1511 954C1505.08 953.533 1493.81 954.227 1489.43 949.683C1484.4 944.463 1487.22 932.433 1487.83 926C1489.64 907.002 1488 887.088 1488 868C1494.33 868 1500.67 868.043 1507 867.999C1509.2 867.984 1512.28 868.346 1513.82 866.397C1515.97 863.684 1515 858.242 1515 855L1488 855C1488 837.941 1488.14 820.996 1488.96 804C1489.36 795.801 1489.75 785.247 1496.11 779.213C1505.51 770.298 1519.88 772.462 1531 776.345C1534.69 777.634 1539.08 780.915 1543 781.045C1547.95 781.208 1553.56 773.627 1553.63 769.004C1553.73 762.233 1544.15 759.996 1539 759.084C1522.43 756.148 1508.43 761.049 1495 770.885C1485.97 777.501 1476.17 785.731 1471.19 796C1468.2 802.152 1467.58 809.313 1466.83 816C1465.37 829.116 1465 841.75 1465 855M1544 855L1525 855L1525 868L1544 868L1544 927C1544 933.386 1546.11 944.495 1541.35 949.567C1537.5 953.663 1528.26 953.585 1523 954L1523 962L1591 962L1591 954C1584.96 953.95 1573.72 954.601 1569.43 949.772C1564.85 944.611 1567 933.423 1567 927L1567 868L1594 868L1595 855L1567 855C1567 837.111 1566.93 818.772 1568.83 801C1569.7 792.957 1569.82 785.135 1576.09 779.188C1585.85 769.943 1600.6 772.811 1612 776.864C1615.35 778.054 1619.42 781.116 1622.99 781.184C1627.5 781.269 1633.54 773.246 1633.54 769.015C1633.54 762.42 1624.01 760.099 1619 759.015C1602.19 755.376 1587.46 761.742 1574 771.428C1565.41 777.605 1556.39 785.492 1551.4 795C1548.32 800.88 1547.52 807.532 1546.58 814C1544.62 827.553 1544 841.317 1544 855M1408 770.653C1393.9 775.092 1401.58 793.292 1415 789.427C1429.2 785.339 1421.77 766.318 1408 770.653M542 871C560.183 871.845 556 894.161 556 907C556 914.719 556.988 922.314 557 930C557.04 955.033 556 980.032 556 1005C556 1018.48 558.526 1036.03 542 1040L542 1048L605 1048C604.992 1045.7 605.434 1042.53 603.972 1040.56C599.175 1034.11 585.526 1040.49 581.028 1032.85C578.529 1028.61 580 1020.77 580 1016L580 981C580 976.694 578.811 970.227 580.603 966.228C581.857 963.43 585.254 962.712 588 962.301C594.509 961.327 601.432 962.074 608 961.996C624.692 961.798 643.309 953.874 654.961 941.985C674.564 921.984 677.48 885.087 657.826 864.039C650.57 856.268 640.23 851.364 630 848.899C623.497 847.332 615.614 846.034 609 847.529C598.706 849.855 590.493 856.909 581 861C581 856.038 583.036 845.589 578.682 842.153C573.769 838.275 568.81 843.42 565 846.349C560.417 849.873 555.818 853.445 551 856.644C548.467 858.327 544.71 859.743 543.028 862.39C541.503 864.789 542.002 868.292 542 871M783 869C787.909 869 794.975 867.796 798.397 872.228C802.237 877.204 800 888.995 800 895L800 933C800 937.715 801.258 944.671 798.972 948.956C796.591 953.421 791.479 954.128 787 955L787 963C802.67 962.327 818.266 962 834 962C833.9 953.607 826.161 952.675 824.394 945C823.238 939.977 824 934.129 824 929L824 898C824 892.487 822.497 884.331 824.603 879.17C826.273 875.079 831.442 871.99 835 869.7C852.037 858.733 874.02 864.219 879.1 885C881.969 896.735 880.557 908.17 880.039 920C879.689 927.998 880.196 936.173 878.073 944C875.826 952.28 869.032 956.071 869 965C881.525 963.417 894.387 962.324 907 962.015C910.672 961.925 919.406 963.648 921.972 960.397C923.656 958.263 923.23 953.859 920.682 952.603C917.85 951.208 914.047 952.163 911.004 951.196C904.516 949.134 902.089 942.321 902.079 936C902.06 924.6 902.308 912.413 903.089 901C903.939 888.601 905.646 874.807 900.532 863C895.425 851.212 883.928 847.005 872 847C853.282 846.993 836.639 855.748 822 867C822 861.67 822.096 856.33 821.995 851.001C821.952 848.701 822.073 845.542 819.682 844.287C816.048 842.379 810.872 846.873 808 848.681C802.785 851.966 797.512 854.994 792 857.753C789.447 859.031 785.738 860.207 784.028 862.636C782.761 864.435 783.025 866.925 783 869M463 847.468C454.589 849.044 446.471 853.681 440.004 859.145C428.772 868.635 419.782 882.262 417.326 897C412.464 926.167 429.35 956.604 459 963C465.363 964.373 471.465 965.691 478 964.536C526.384 955.987 550.936 884.789 506 855.699C499.957 851.787 493.052 849.209 486 847.808C478.954 846.407 470.083 846.141 463 847.468M777 946C776.467 944.027 776.051 941.454 773.721 940.812C770 939.786 764.548 943.423 761 944.406C754.146 946.305 746.04 946.706 739 945.7C718.946 942.835 709.104 926.987 704 909C722.845 903.613 740.83 893.549 759 886.201C762.832 884.651 774.94 881.737 775.534 876.877C775.834 874.42 773.466 872.466 771.941 870.911C768.396 867.292 764.823 863.616 761 860.289C754.558 854.684 747.529 849.337 739 847.518C724.359 844.394 705.548 854.377 695.465 864.464C687.689 872.244 685.107 883.462 683.845 894C680.833 919.161 686.055 949.467 712 960.571C736.474 971.045 756.852 959.706 777 946M1008 866C1022.24 867.928 1022 878.052 1022 890C1022 908.042 1021.21 926.022 1021 944C1020.94 948.692 1017.04 959.531 1020.03 963.397C1022.32 966.358 1027.96 964.464 1031 964.17C1041.58 963.146 1052.37 962.001 1063 962L1063 954C1058.13 953.96 1051 954.09 1047.74 949.772C1044.08 944.912 1046 934.77 1046 929C1046 911.027 1044.08 891.819 1046.42 874C1047.12 868.669 1046.66 863.324 1047.29 858C1047.61 855.281 1048.65 851.814 1046.97 849.322C1044.33 845.385 1037.45 848.684 1034 849.72C1028.32 851.425 1022.66 853.195 1017 854.975C1014.41 855.79 1010.74 856.296 1009.03 858.652C1007.59 860.634 1008.01 863.7 1008 866M1230 946C1229.5 943.854 1228.88 942.021 1228 940C1220.89 941.685 1214.34 944.757 1207 945.711C1189.92 947.93 1173.32 942.079 1164.07 927C1160.65 921.428 1158.97 915.171 1157 909C1163.63 907.426 1169.74 904.053 1176 901.424C1187.99 896.392 1199.93 891.181 1212 886.341C1215.83 884.805 1227.99 881.691 1228.53 876.907C1229.12 871.792 1218.36 864.214 1215 861.089C1208.79 855.317 1201.43 849.615 1193 847.681C1178.07 844.255 1158.8 854.036 1148.47 864.464C1141.09 871.913 1138.39 882.952 1137 893C1133.65 917.151 1138.52 948.042 1163 959.68C1187.68 971.41 1209.61 960.606 1230 946M1382 866C1385 866.389 1388.25 866.739 1390.91 868.303C1399.31 873.249 1397 885.827 1397 894C1397 905.592 1397.7 917.435 1396.91 929C1396.09 940.97 1394.01 952.989 1394 965C1408.35 964.704 1422.63 962.01 1437 962L1437 954C1432.05 953.999 1425.15 954.787 1422.18 949.786C1418.96 944.363 1421.14 934.12 1420.99 928C1420.52 908.996 1419.79 890.041 1421.09 871C1421.46 865.582 1425.11 854.042 1421.97 849.319C1419.05 844.928 1411.71 848.81 1408 849.975C1402.03 851.851 1395.96 853.429 1390 855.344C1387.75 856.069 1384.54 856.697 1383.03 858.702C1381.57 860.636 1382.01 863.736 1382 866z"/>
                <path style="fill:rgb(141, 71, 71); stroke:none;" d="M703 900C717.485 895.859 730.498 887.146 745 883C742.738 870.505 724.111 853.628 712.188 865.214C703.532 873.626 703 888.747 703 900M1156 900C1170.55 896.019 1183.51 887.143 1198 883C1196.33 870.408 1176.88 853.798 1165.21 865.225C1156.87 873.393 1156.23 889.065 1156 900M1290 861.44C1258.34 866.537 1253.56 910.247 1270.53 931.996C1279.19 943.092 1294.49 946.971 1308 944.536C1316.25 943.048 1328.28 937.437 1331.4 929C1333.77 922.565 1332 912.812 1332 906C1332 898.639 1332.39 891.11 1330.1 884C1324.47 866.523 1307.4 858.638 1290 861.44M456 863.613C440.891 867.615 436.842 884.365 437.004 898C437.319 924.485 462.13 955.167 491 946.696C506.163 942.247 509.005 926.59 509 913C508.99 887.161 484.85 855.97 456 863.613M597 866.428C592.763 867.037 584.722 867.674 582.028 871.51C579.406 875.244 581 883.623 581 888L581 930C581 934.467 579.256 943.694 582.028 947.436C583.718 949.718 587.437 949.843 590 949.961C597.084 950.286 604.976 950.712 612 949.7C644.752 944.978 657.185 901.621 635.816 878.015C626.164 867.354 610.761 864.452 597 866.428z"/>
                <path style="fill:#a9a9a9; stroke:none;" d="M374.985 926.176C369.903 927.97 364.612 935.099 361.059 939C359.553 940.653 357.636 942.592 357.636 945C357.636 948.982 362.491 952.438 364.985 955C367.624 957.711 372.176 965.352 376.715 964.248C378.863 963.727 380.559 961.461 382.039 959.981C385.514 956.506 394.364 950.395 394.364 945C394.364 941.034 389.512 937.529 387.001 935C384.317 932.298 379.491 924.585 374.985 926.176M812 984L812 986C816.235 989.815 815.999 993.587 816 999C810.692 999.004 805.524 998.884 801.34 1002.71C795.049 1008.46 795.956 1020.8 805.004 1023.33C809.118 1024.48 812.567 1021.87 816 1020L816 1024C819.662 1023.21 822.86 1022.16 825 1019L821 1019C821 1006.21 819.661 992.599 822 980C818.516 981.004 815.342 982.61 812 984M1618 987C1622.03 989.615 1621 994.614 1621 999C1615.91 999.003 1611.19 998.949 1607.05 1002.39C1600.08 1008.21 1600.41 1021.9 1611 1023.55C1614.71 1024.13 1617.92 1021.68 1621 1020L1622 1024C1625.19 1022.76 1628.05 1021.86 1630 1019C1626.17 1016.52 1627 1012.21 1627 1008L1627 980C1622.88 981.283 1619.37 982.716 1618 987M737 1001L733 1001L733 1004L737 1004L737 1021L733 1021L733 1023L747 1023L747 1021L742 1021L742 1004L748 1004L748 1001L743 1001C743 996.662 741.486 988.694 745.318 985.619C748.224 983.287 756.557 988.972 757.083 985.682C758.122 979.17 746.818 981.287 744.015 983.009C737.652 986.919 737.056 994.218 737 1001M762 987C766.732 989.61 766 994.098 766 999C766.001 1007.84 766.875 1015.93 763 1024L775 1023C767.811 1011.6 771 994.364 771 981C767.282 982.178 764.136 983.673 762 987M840 1001L840 1004L843 1004L843 1021L839 1021L839 1023L854 1023L854 1021L849 1021L849 1004L854 1004L854 1001L849 1001C849 996.44 847.152 986.404 853.059 984.788C855.531 984.111 858.595 985.452 861 986C861.932 979.902 855.157 980.371 851.004 982.573C847.96 984.186 845.428 986.66 844.419 990.004C843.148 994.216 844.043 998.409 840 1001M860 1001L856 1001L856 1004L860 1004L860 1021L856 1021L856 1023L870 1023L870 1021C862.948 1018.86 865 1010.02 865 1004L871 1004L871 1001L865 1001C865 996.179 863.717 986.391 870.055 984.812C872.486 984.207 875.588 985.594 878 986L879 982C865.083 978.688 860.001 988.813 860 1001M943 985L943 987C946.485 990.413 946 994.339 946 999C946.001 1007.56 946.568 1015.77 944 1024C947.701 1023.31 951.237 1023.01 955 1023C947.811 1011.6 951 994.364 951 981C948.126 982.045 945.618 983.414 943 985M1335 987C1338.6 989.334 1338 992.995 1338 997C1338 1005.95 1339.24 1015.55 1336 1024L1347 1023C1341.19 1010.89 1344 994.303 1344 981C1340.16 982.13 1337.12 983.533 1335 987M1575 1000L1571 1000L1571 1004L1575 1004L1575 1021L1571 1021L1571 1023L1586 1023L1586 1021L1581 1021L1581 1004L1586 1004L1586 1001L1581 1001C1581 996.44 1579.15 986.404 1585.06 984.788C1587.53 984.111 1590.6 985.452 1593 986C1594.11 978.763 1584.93 980.923 1581.09 983.804C1575.66 987.886 1575.02 993.708 1575 1000M1780 987C1784.45 989.456 1784 993.317 1784 998C1784 1006.86 1784.66 1015.48 1782 1024L1793 1023C1786.27 1012.32 1787.69 993.447 1790 981C1785.98 981.919 1782.29 983.49 1780 987M1795 985L1795 987C1798.49 990.413 1798 994.339 1798 999C1798 1007.56 1798.57 1015.77 1796 1024C1799.7 1023.31 1803.24 1023.01 1807 1023C1799.71 1011.44 1802.95 994.34 1804 981C1800.63 981.77 1797.96 983.216 1795 985M831.603 984.157C829.87 985.314 831.664 988.001 833.397 986.843C835.13 985.686 833.336 982.999 831.603 984.157M1112 984L1113 988C1115.96 987.032 1116.5 986.066 1117 983C1115.12 983.176 1113.8 983.438 1112 984M1216 988C1223.31 986.782 1217.22 980.691 1216 988M1259.6 984.157C1257.87 985.315 1259.66 988.001 1261.4 986.843C1263.13 985.686 1261.34 982.999 1259.6 984.157M1079 995L1073 1001C1076.39 1007.1 1073.13 1013.82 1075.6 1019.94C1078.04 1025.95 1084.49 1023.08 1087 1019C1077.82 1018.3 1080 1009.03 1080 1002L1087 1002L1087 1000L1080 1000C1079.91 998.036 1079.78 996.769 1079 995M1521 995C1519.21 997.438 1517.39 999.143 1515 1001C1516.25 1001.68 1516.55 1001.75 1518 1002C1518 1007.3 1516.59 1014.98 1518.6 1019.94C1520.92 1025.64 1526.76 1022.94 1529 1019L1523 1019L1523 1002L1529 1002L1529 1000L1523 1000L1523 995L1521 995M1653 1001C1656.37 1007.06 1653.13 1013.84 1655.74 1019.89C1658.25 1025.72 1664.6 1023.22 1667 1019L1661 1019L1661 1002L1667 1002L1667 1000L1661 1000L1661 995C1657.78 996.496 1655.55 998.52 1653 1001M1710 995L1704 1001C1707.38 1007.07 1704.18 1013.84 1706.74 1019.94C1709.18 1025.72 1715.5 1023 1718 1019L1712 1019L1712 1002L1718 1002L1718 1000L1711 1000C1710.91 998.036 1710.78 996.769 1710 995M653 1002L653 1004C656.589 1007.8 656 1012.01 656 1017C656 1025.57 656.753 1033.18 653 1041L666 1041C664.535 1038.88 663.543 1038.53 661 1038L661 1023C666.523 1023 672.594 1023.17 676.697 1018.78C682.146 1012.93 680.484 1003.04 672.996 1000.01C669.155 998.453 665.672 999.662 662 1001C660.876 995.783 655.859 1000.07 653 1002M703 1004C708.549 1007.6 706.015 1017.74 704 1023L714 1023C712.242 1018.41 710.192 1010.83 713.028 1006.23C717.972 998.211 723.193 1009.15 722.956 1014C722.804 1017.12 721.792 1020.01 721 1023L732 1023C730.741 1021 728.903 1019.31 728.313 1016.95C726.615 1010.14 730.993 998.953 720 999.232C718.656 999.266 717.263 999.716 716.025 1000.2C714.213 1000.91 712.637 1001.97 711 1003L711 998C707.447 999.307 704.877 1000.67 703 1004M919 998C916.291 999.813 913.762 1001.25 912 1004L916 1004C916 1008.43 917.15 1014.7 915.667 1018.89C915.122 1020.43 913.706 1021.55 913 1023L923 1023C921.299 1018.56 917.868 1000.85 927.942 1003.85C935.143 1006 931.503 1018.18 930 1023L941 1023C939.741 1021 937.903 1019.31 937.313 1016.95C935.685 1010.42 940.008 999.806 929.999 999.103C928.678 999.01 927.247 999.296 926.005 999.724C923.867 1000.46 921.93 1001.86 920 1003C919.912 1001.04 919.779 999.769 919 998M1042 1004L1046 1004C1046 1008.43 1047.15 1014.7 1045.67 1018.89C1045.12 1020.43 1043.71 1021.55 1043 1023L1053 1023C1051.25 1018.43 1047.73 1002.74 1056.96 1003.66C1065.26 1004.49 1061.46 1018.32 1060 1023L1071 1023C1069.6 1020.66 1067.74 1018.77 1067.23 1015.98C1066.08 1009.67 1069.49 999.604 1060 999.153C1058.68 999.09 1057.28 999.449 1056.02 999.835C1054.28 1000.37 1052.64 1001.23 1051 1002L1050 998C1046.75 999.522 1043.95 1000.96 1042 1004M1121 1004C1126.55 1007.6 1124.01 1017.74 1122 1023L1132 1023C1130.25 1018.43 1126.73 1002.74 1135.96 1003.66C1144.21 1004.48 1140.48 1018.32 1139 1023L1150 1023C1148.74 1021 1146.9 1019.31 1146.31 1016.95C1144.61 1010.14 1148.99 998.953 1138 999.232C1136.66 999.266 1135.26 999.716 1134.02 1000.2C1132.21 1000.91 1130.64 1001.97 1129 1003L1129 998C1125.53 999.318 1122.94 1000.8 1121 1004M1166 1001L1166 1004C1171.37 1009.26 1168.85 1017.06 1166 1023L1176 1023C1174.57 1018.4 1170.8 1005.71 1178.06 1003.89C1185.16 1002.12 1186.01 1013.55 1184.42 1017.87C1183.71 1019.78 1182.07 1021.3 1181 1023L1194 1023L1194 1021L1190 1021C1190 1017 1189.14 1011.8 1190.6 1008.02C1192.35 1003.49 1198.27 1002 1200.4 1007.11C1202.61 1012.44 1199.9 1018.14 1198 1023L1210 1023C1208.74 1021 1206.9 1019.31 1206.31 1016.95C1204.65 1010.3 1209 1000.14 1199 999.153C1197.68 999.023 1196.25 999.3 1195 999.725C1192.87 1000.45 1190.93 1001.86 1189 1003C1185.36 996.768 1178.66 999.278 1174 1003C1173.82 1001.12 1173.56 999.801 1173 998L1166 1001M1267 1001L1267 1004L1270 1004C1270 1008.43 1271.15 1014.7 1269.67 1018.89C1269.12 1020.43 1267.71 1021.55 1267 1023L1278 1023C1276.73 1018.69 1272.31 1003.22 1281 1003.22C1287.2 1003.22 1287.1 1014.84 1285.67 1018.89C1285.12 1020.43 1283.71 1021.55 1283 1023L1295 1023C1294.02 1021.22 1294.09 1021.41 1292 1021C1292 1016.76 1290.72 1009.97 1293.03 1006.23C1295.7 1001.89 1300.67 1004.05 1302.26 1008.02C1304.33 1013.21 1301.7 1018.2 1300 1023L1311 1023C1309.89 1020.69 1308.51 1018.57 1308.14 1015.99C1307.6 1012.12 1308.83 1007.73 1307.4 1004.02C1304.65 996.886 1296.19 998.606 1292 1003C1286.93 998.084 1281.82 998.465 1276 1002L1275 998L1267 1001M1384 1001L1384 1004C1389.37 1009.26 1386.85 1017.06 1384 1023L1395 1023C1393.33 1018.63 1389.9 1005.32 1397.05 1003.83C1400.36 1003.14 1402.4 1006.2 1402.85 1009.02C1403.7 1014.32 1402.22 1018.37 1400 1023L1412 1023L1412 1021L1408 1021C1408 1017 1407.14 1011.81 1408.6 1008.02C1410.37 1003.45 1416.28 1001.82 1418.4 1007.06C1420.58 1012.45 1418.3 1018.21 1416 1023L1428 1023C1427.02 1021.22 1427.09 1021.41 1425 1021C1425 1015.87 1426.22 1008.87 1424.26 1004.04C1421.44 997.138 1413.06 998.403 1409 1003C1403.56 998.661 1398.88 998.121 1393 1002L1392 998L1384 1001M1485 1004C1490.55 1007.6 1488.01 1017.74 1486 1023L1496 1023C1494.25 1018.43 1490.73 1002.74 1499.96 1003.66C1508.21 1004.48 1504.48 1018.32 1503 1023L1514 1023C1512.74 1021 1510.9 1019.31 1510.31 1016.95C1508.68 1010.42 1513 999.957 1503 999.203C1501.68 999.103 1500.28 999.453 1499.02 999.836C1497.28 1000.37 1495.64 1001.23 1494 1002L1493 998C1489.53 999.318 1486.94 1000.8 1485 1004M636.001 999.654C622.335 1003.89 626.68 1027.4 641 1023.33C656.192 1019.02 651.949 994.71 636.001 999.654M702 1018C694.457 1019.99 691.073 1019.04 687 1012C692.183 1010.52 697.019 1008.04 702 1006C700.535 1003.97 699.162 1002.09 696.982 1000.74C682.6 991.819 674.703 1022.63 692 1023.76C693.737 1023.87 695.403 1023.49 696.981 1022.77C699.43 1021.66 700.733 1020.25 702 1018M749 1001L749 1004L752 1004L752 1023L761 1023L761 1021L757 1021C757 1013.57 757.068 1006.37 758 999L749 1001M795 1019C791.895 1019.22 778.801 1019.08 782.832 1012.41C784.791 1009.17 791.636 1007.4 795 1006C794.119 1004.2 793.468 1002.85 791.851 1001.55C775.181 988.128 768.303 1029.53 788.995 1023.34C791.652 1022.55 793.261 1021.02 795 1019M826 1001C829.437 1008.68 829 1015.63 829 1024L838 1023C837.02 1021.22 837.092 1021.41 835 1021L835 999L826 1001M895.004 999.653C880.63 1004.2 886.376 1027.95 900.996 1023.14C915.492 1018.38 910.663 994.702 895.004 999.653M1015 1019C1012.38 1019.31 1009.54 1020 1007.04 1018.78C1002.47 1016.55 1000.29 1009.44 1003.74 1005.32C1006.68 1001.81 1011.71 1003.86 1015 1000C1012.25 999.195 1009.84 998.827 1007 999.639C998.932 1001.94 993.142 1012.15 998.742 1019.79C1002.93 1025.5 1011.66 1024.87 1015 1019M1025.01 999.703C1011.71 1004.3 1016.6 1027.84 1031 1023.14C1045.57 1018.39 1040.5 994.351 1025.01 999.703M1089 1004L1090 1005L1092 1005C1094.63 1002.77 1099.42 1003.03 1098.25 1007.9C1097.3 1011.84 1091.91 1012.78 1090.03 1016.18C1084.85 1025.55 1101.61 1022.71 1106 1022C1103.68 1015.94 1106.11 1007.44 1102.97 1002.15C1099.6 996.452 1091.48 999.388 1089 1004M1108 1001C1109.16 1003.34 1111.06 1005.47 1111.69 1008.04C1112.94 1013.19 1111.22 1018.82 1111 1024L1120 1023C1119.02 1021.22 1119.09 1021.41 1117 1021L1117 999L1108 1001M1212 1004C1217.58 1007.62 1214.72 1018.3 1214 1024L1224 1023L1224 1021L1220 1021C1220 1013.57 1220.42 1006.39 1221 999C1217.01 999.541 1213.43 999.913 1212 1004M1224 1004L1228 1004C1228 1008.43 1229.15 1014.7 1227.67 1018.89C1227.12 1020.43 1225.71 1021.55 1225 1023L1235 1023C1233.64 1018.63 1229.67 1000.8 1239.94 1003.71C1247.16 1005.76 1243.48 1018.26 1242 1023L1253 1023C1251.83 1021.01 1249.84 1019.22 1249.35 1016.9C1248.02 1010.49 1253.09 1000.77 1243 999.191C1241.7 998.989 1240.25 999.299 1239 999.635C1236.95 1000.19 1234.97 1001.2 1233 1002C1231.83 996.522 1225.59 1000.68 1224 1004M1254 1001L1254 1004L1257 1004L1257 1023L1266 1023L1266 1021L1262 1021C1262 1013.57 1262.07 1006.37 1263 999L1254 1001M1315 1004L1316 1005L1318 1005C1321.01 1002.45 1326.29 1003.96 1323.91 1008.67C1322.12 1012.23 1317.14 1012.83 1315.2 1016.33C1313.53 1019.34 1315.48 1023.22 1319.01 1023.38C1321.16 1023.48 1323.22 1021.98 1325 1021C1327.02 1023.23 1329.15 1022.5 1332 1022C1329.71 1016.02 1332.13 1007.39 1328.97 1002.23C1325.47 996.502 1317.5 999.231 1315 1004M1364 1005C1365.77 1004.53 1368.28 1002.95 1370.11 1003.15C1373.28 1003.49 1374.09 1007.22 1372.38 1009.47C1370.2 1012.33 1366 1013.09 1364.2 1016.33C1359.95 1023.99 1370.21 1022.89 1374 1021C1376.02 1023.23 1378.15 1022.5 1381 1022C1378.68 1015.94 1381.11 1007.44 1377.97 1002.15C1374.33 995.997 1365.65 999.443 1364 1005M1439 999.742C1425.17 1005.03 1431.42 1028.86 1446 1022.77C1459.61 1017.08 1453.9 994.045 1439 999.742M1457 1001C1457.9 1003.3 1459.19 1005.57 1459.7 1008C1461.04 1014.42 1458.74 1027 1470 1023.01C1472.08 1022.26 1474.04 1021.02 1476 1020C1476.84 1023.89 1479.7 1022.35 1483 1022C1481.16 1014.18 1481 1007.08 1481 999L1471 999L1471 1002L1475 1002C1475 1006.02 1476.35 1013.11 1473.97 1016.57C1471.87 1019.61 1467.24 1019.15 1465.74 1015.85C1463.61 1011.14 1465.1 1003.87 1466 999L1457 1001M1554 999.654C1540.29 1003.94 1544.66 1027.35 1559 1023.47C1574.09 1019.39 1570.22 994.586 1554 999.654M1633 1004L1634 1005L1636 1005C1639.01 1002.45 1644.29 1003.96 1641.91 1008.67C1640.12 1012.23 1635.14 1012.83 1633.2 1016.33C1631.53 1019.34 1633.48 1023.22 1637.01 1023.38C1639.16 1023.48 1641.22 1021.98 1643 1021C1645.02 1023.23 1647.15 1022.5 1650 1022C1647.68 1015.94 1650.11 1007.44 1646.97 1002.15C1643.6 996.452 1635.48 999.388 1633 1004M1669 1002L1669 1004L1673 1005C1675.95 1002.6 1679.86 1004.74 1677.91 1008.82C1676.3 1012.2 1671.83 1012.96 1670.04 1016.21C1668.58 1018.88 1669.64 1023.17 1673.11 1023.41C1675.43 1023.57 1677.96 1021.9 1680 1021L1680 1024L1687 1022C1683.96 1014.06 1688.15 995.668 1674.02 999.628C1672.19 1000.14 1670.64 1001.08 1669 1002M1727.01 999.858C1712.97 1005.69 1720.87 1029.07 1734.99 1022.72C1748.85 1016.49 1742.17 993.563 1727.01 999.858M1761 1005C1762.72 1004.52 1765.15 1002.95 1766.94 1003.15C1770.25 1003.52 1769.86 1007.69 1768.39 1009.67C1766.41 1012.33 1762.67 1013.24 1761.04 1016.21C1759.58 1018.88 1760.64 1023.17 1764.11 1023.41C1766.43 1023.57 1768.96 1021.9 1771 1021C1771.89 1025.15 1774.84 1022.93 1778 1022C1775.69 1015.97 1778.04 1007.5 1774.82 1002.23C1771.12 996.17 1762.67 999.384 1761 1005M1816.01 999.858C1802.69 1005.38 1809.11 1028.58 1823 1023.14C1837.84 1017.32 1831.58 993.41 1816.01 999.858M955 1000C957.518 1007.04 962.873 1016.27 962.026 1024C961.603 1027.86 958.749 1031.12 958 1035C962.487 1032.67 964.455 1028.23 967 1024C971.681 1016.21 977.78 1008.51 981 1000L973 1000C974.874 1006.21 970.383 1012.75 966 1017C965.76 1011.49 962.082 1005.47 966 1001C962.568 999.56 958.7 1000 955 1000M1833 1000C1835.57 1006.21 1840.42 1020.75 1847 1023C1848.11 1018.1 1850.52 1013.36 1853 1009L1859 1023L1862 1023L1872 1000L1864 1000C1864.98 1001.78 1864.91 1001.59 1867 1002L1862 1014L1856 1000C1850.18 1001.83 1848.48 1009.58 1847 1015C1844.8 1010.86 1843.08 1006.56 1842 1002C1843.8 1002 1843.52 1001.99 1845 1001C1841.3 999.448 1836.98 1000 1833 1000z"/>
                <path style="fill:rgb(141, 71, 71); stroke:none;" d="M689 1002C687.818 1004.43 687.27 1006.31 687 1009L695 1007C693.483 1004.08 692.107 1003.08 689 1002M808.015 1002.68C798.555 1004.4 801.3 1020.16 810.981 1018.75C819.559 1017.5 816.909 1001.07 808.015 1002.68M1612.04 1002.76C1602.71 1006.14 1608.17 1022.56 1617.85 1018.26C1624.82 1015.16 1620.5 999.704 1612.04 1002.76M634.434 1004.03C627.545 1008.64 636.451 1024.19 643.682 1018.38C650.315 1013.06 641.904 999.031 634.434 1004.03M661 1004L661 1020C663.908 1020 667.298 1020.39 669.956 1018.97C675.432 1016.05 676.367 1008.37 670.891 1004.94C667.863 1003.04 664.34 1003.65 661 1004M780 1010L788 1007C784.644 1000.93 780.845 1004.74 780 1010M893.653 1004.03C887.103 1008.74 895.289 1023.33 902.721 1018.82C910.803 1013.91 900.922 998.795 893.653 1004.03M1024.23 1004.03C1016.61 1008.54 1025.31 1023.03 1032.77 1018.93C1040.67 1014.59 1032.09 999.389 1024.23 1004.03M1438.15 1004.03C1430.67 1008.34 1439.23 1022.92 1446.77 1018.78C1454.69 1014.43 1446.28 999.34 1438.15 1004.03M1552.43 1004.03C1545.58 1008.62 1554.55 1024.11 1561.68 1018.38C1568.21 1013.14 1559.85 999.067 1552.43 1004.03M1726.32 1004.03C1719.65 1008.42 1728.15 1023.75 1735.57 1018.82C1742.66 1014.1 1734.16 998.862 1726.32 1004.03M1815.32 1004.03C1808.62 1008.38 1817.14 1023.75 1824.57 1018.82C1831.69 1014.08 1823.06 999.006 1815.32 1004.03M1098 1012C1097.21 1012.66 1095.83 1013.53 1095.18 1014.45C1091.59 1019.47 1098.51 1020.96 1098.85 1015.09C1098.92 1013.85 1098.45 1013.09 1098 1012M1324 1013C1323.1 1013.46 1321.87 1013.75 1321.18 1014.61C1318.08 1018.44 1322.67 1020.99 1323.85 1016.1C1324.07 1015.21 1323.97 1013.85 1324 1013M1373 1013C1372.17 1013.35 1370.88 1013.63 1370.16 1014.32C1366.52 1017.86 1371.57 1021.38 1372.85 1016.1C1373.07 1015.21 1372.97 1013.85 1373 1013M1642 1013C1641.1 1013.46 1639.87 1013.75 1639.18 1014.61C1636.08 1018.44 1640.67 1020.99 1641.85 1016.1C1642.07 1015.21 1641.97 1013.85 1642 1013M1679 1013C1678.19 1013.3 1676.86 1013.51 1676.16 1014.18C1672.49 1017.71 1677.55 1021.49 1678.85 1016.1C1679.07 1015.21 1678.97 1013.85 1679 1013M1770 1013C1769.19 1013.3 1767.86 1013.51 1767.16 1014.18C1763.49 1017.71 1768.55 1021.49 1769.85 1016.1C1770.07 1015.21 1769.97 1013.85 1770 1013z"/>
                <path style="fill:#a9a9a9; stroke:none;" d="M618.133 1016.35C614.383 1017.54 615.926 1023.34 619.786 1022.25C623.547 1021.19 621.848 1015.16 618.133 1016.35M1862 1054C1867.94 1053.53 1868.53 1047.41 1874 1046.36C1879.64 1045.28 1883.96 1050.84 1881.9 1056C1877.5 1066.99 1862.41 1072.43 1862 1085L1889 1085L1889 1079L1871 1079C1876.52 1071.17 1890.33 1061.96 1888.62 1051C1887 1040.63 1873.68 1037.46 1866.21 1043.65C1862.96 1046.35 1862.21 1050.01 1862 1054M1057 1054L1068 1048L1068 1085L1074 1085L1074 1041C1065.95 1041.19 1057.29 1045.19 1057 1054M910 1050C914.554 1052.66 913.998 1057.18 914 1062C914.002 1067.33 914.923 1073.66 913.701 1078.87C913.186 1081.07 911.671 1082.85 911 1085L922 1085C921.518 1082.64 921.364 1082.48 919 1082C919 1077.7 917.525 1070.02 920.603 1066.57C925.594 1060.99 933.862 1068.07 933.702 1074C933.561 1079.24 928.445 1080.57 927 1085C942.511 1082.61 942.128 1058.85 925.005 1061.14C922.499 1061.48 920.998 1062.56 919 1064L919 1042C914.989 1043.69 911.402 1045.74 910 1050M1001 1046L1001 1049C1004.49 1052.41 1004 1056.34 1004 1061C1004 1069.1 1004.93 1077.35 1002 1085L1013 1085L1013 1082L1009 1082C1009 1068.6 1008.95 1055.34 1010 1042L1001 1046M1106 1062L1102 1062L1102 1065L1106 1065L1106 1082L1102 1082L1102 1085L1116 1085L1116 1082L1111 1082L1111 1065L1117 1065L1117 1062L1111 1062C1111 1057.43 1109.71 1049.88 1114.34 1047.03C1118.49 1044.49 1123.07 1048.76 1125 1043C1111.7 1039.84 1106.1 1050.28 1106 1062M1200 1042C1196.73 1044.33 1193.32 1046.1 1192 1050C1196.45 1052.46 1196 1056.32 1196 1061C1196 1066.64 1196.99 1073.36 1195.7 1078.87C1195.19 1081.07 1193.67 1082.85 1193 1085L1205 1085L1205 1082L1201 1082C1201 1077.32 1199.6 1069.92 1203.32 1066.33C1208.45 1061.38 1215.78 1068.38 1215.78 1074C1215.78 1079.29 1210.52 1080.61 1209 1085C1224.97 1083.22 1224.37 1058.82 1207 1061.14C1204.5 1061.48 1203 1062.56 1201 1064C1201 1057.3 1202.6 1048.2 1200 1042M1475 1062L1471 1062L1471 1065L1475 1065L1475 1082L1471 1082L1471 1085L1485 1085L1485 1082L1480 1082L1480 1065L1486 1065L1486 1062L1481 1062C1481 1058 1479.41 1049.58 1483.32 1047.03C1487.43 1044.35 1492.04 1048.84 1494 1043C1480.99 1039.94 1475.09 1050.52 1475 1062M1629 1045L1629 1048L1632 1048L1632 1061C1624.22 1059.17 1615.72 1062.6 1613.5 1071C1611.78 1077.52 1616.85 1085.41 1624 1084.74C1627.26 1084.44 1630.17 1082.48 1633 1081L1633 1085C1636.01 1084.48 1638.45 1083.68 1641 1082C1639.75 1081.32 1639.45 1081.25 1638 1081L1638 1042L1629 1045M1784 1062L1780 1062C1780.48 1064.36 1780.64 1064.52 1783 1065L1783 1082L1779 1082L1779 1085L1794 1085C1792.55 1082.72 1791.69 1082.42 1789 1082L1789 1065L1794 1065L1794 1062L1789 1062C1789 1058.02 1787.41 1049.7 1791.32 1047.18C1794 1045.46 1802.49 1049.92 1803.08 1046.71C1804.32 1039.93 1792.54 1042.88 1790 1044.65C1783.57 1049.15 1784 1054.95 1784 1062M1808 1049L1812 1049C1812 1060.47 1814.14 1074.2 1810 1085L1821 1085L1821 1082L1817 1082C1817 1068.68 1816.33 1055.22 1818 1042C1813.82 1043.32 1810.19 1045.12 1808 1049M683 1047L683 1049C687.595 1052.83 687 1057.4 687 1063L687 1085C694.225 1085 702.262 1085.79 707.581 1079.79C712.905 1073.78 711.752 1062.64 702.999 1060.62C699.472 1059.8 696.161 1061.71 693 1063L693 1043C689.276 1043.66 686.262 1045.1 683 1047M957 1043C960.159 1056.44 959.739 1071.24 958 1085L976 1085L976 1082C973.586 1081.99 970.436 1082.39 968.318 1080.97C964.153 1078.18 966 1068.35 966 1064C972.688 1064 978.574 1063.99 985 1066L986 1056C978.96 1059.75 973.981 1060 966 1060L966 1046C974.577 1046 979.284 1047.63 987 1051L987 1043L957 1043M717 1045L717 1049C718.878 1048.82 720.199 1048.56 722 1048L722 1046C720.199 1045.44 718.878 1045.18 717 1045M759 1045L759 1049C762.066 1048.5 763.032 1047.96 764 1045L759 1045M885 1045C886.277 1048.84 888.723 1048.84 890 1045L885 1045M992 1045L992 1049L996 1049L996 1045L992 1045M1695 1046L1695 1048C1698.14 1048.49 1699 1048.04 1700 1045C1698.12 1045.18 1696.8 1045.44 1695 1046M901 1056C898.52 1058.55 896.496 1060.78 895 1064C898.988 1069.26 895.147 1076.13 897.742 1081.85C899.971 1086.77 905.775 1084.35 908 1081C899.828 1079.7 902 1070.43 902 1064L908 1064L908 1061L902 1061C901.912 1059.04 901.779 1057.77 901 1056M1177 1064C1180.82 1069.04 1177.36 1075.4 1179.6 1080.94C1181.72 1086.18 1187.46 1084.82 1190 1081C1181.89 1079.31 1184 1070.6 1184 1064L1191 1064L1191 1061L1184 1061L1184 1057C1180.5 1058.65 1178.65 1060.5 1177 1064M1258 1063L1258 1066C1261.49 1069.41 1261 1073.34 1261 1078C1261 1086.57 1261.75 1094.18 1258 1102L1271 1102C1267.25 1096.05 1267 1092.09 1267 1085C1272.59 1084.98 1278.47 1084.25 1282.35 1079.66C1291.66 1068.65 1278.17 1056.78 1267 1063L1266 1059L1258 1063M1334 1063L1334 1066C1337.49 1069.41 1337 1073.34 1337 1078C1337 1086.57 1337.75 1094.18 1334 1102L1347 1102L1347 1100L1342 1100L1342 1085C1347.64 1084.95 1353.56 1084.22 1357.61 1079.79C1362.71 1074.19 1361.44 1064.63 1354 1061.74C1349.94 1060.17 1345.78 1061.4 1342 1063L1342 1059C1339.07 1059.97 1336.65 1061.42 1334 1063M1540 1063L1540 1066C1543.49 1069.41 1543 1073.34 1543 1078C1543 1086.57 1543.75 1094.18 1540 1102L1553 1102C1549.24 1096.05 1549 1092.09 1549 1085C1554.65 1084.98 1560.46 1084.45 1564.3 1079.67C1573.32 1068.43 1560.37 1056.66 1549 1063L1548 1059L1540 1063M619.015 1060.94C604.947 1067 612.18 1090.94 626.999 1083.68C632.024 1081.22 635.657 1075.68 634.641 1070C633.466 1063.43 625.462 1058.17 619.015 1060.94M637 1063L637 1065C642.451 1070.34 639.525 1078.51 638 1085L648 1085C646.521 1080.26 645.035 1075.01 646.318 1070C646.946 1067.55 648.988 1064.52 651.946 1065.35C660.251 1067.66 654.441 1080.39 653 1085L665 1085C664.518 1082.64 664.364 1082.48 662 1082C662 1077.93 660.876 1071.77 663.028 1068.15C667.31 1060.93 673.077 1068.76 672.941 1074C672.841 1077.88 671.046 1081.33 670 1085L681 1085C680.518 1082.64 680.364 1082.48 678 1082C678 1076.7 679.708 1067.7 676.258 1063.28C672.026 1057.85 667.107 1062.21 662 1062.21C654.961 1062.21 652.53 1059.02 646 1064L646 1060C642.764 1060.56 639.976 1061.62 637 1063M713 1063L713 1065C717.914 1069.81 716.161 1078.75 715 1085L724 1085C723.518 1082.64 723.364 1082.48 721 1082C721 1075.01 722.457 1066.73 721 1060L713 1063M725 1064C731.417 1069.88 729.133 1078 726 1085L736 1085C734.629 1080.61 730.607 1064.09 739.985 1065.04C748.332 1065.88 744.448 1080.36 743 1085L754 1085C753.13 1082.43 750.976 1080.61 750.313 1077.95C748.765 1071.73 752.969 1060.5 742.999 1060.32C741.655 1060.3 740.248 1060.85 739.025 1061.34C737.254 1062.05 735.642 1063.05 734 1064L734 1060C730.521 1060.67 727.963 1062.07 725 1064M755 1063L755 1065C759.914 1069.81 758.161 1078.75 757 1085L767 1085C765.774 1082.97 765.297 1082.67 763 1082C763 1075.07 764.809 1066.58 763 1060L755 1063M768 1065C774.271 1069.07 770.424 1079.58 768 1085L778 1085C776.835 1080.04 772.352 1064.87 781.961 1064.87C790.449 1064.87 786.345 1080.69 785 1085C789.386 1085 794.385 1086.03 797 1082L793 1082C793 1074.53 795.09 1056.46 782.005 1060.82C779.857 1061.53 777.922 1062.84 776 1064L776 1060C772.487 1060.81 769.976 1061.93 768 1065M805 1078C801.807 1081.5 797.887 1085.81 805 1087C803.75 1087.98 802.251 1088.93 801.273 1090.22C797.635 1095.04 799.501 1099.91 805.015 1101.89C810.535 1103.87 817.853 1103.48 822.982 1100.58C833.321 1094.74 827.305 1085.45 818 1084C814.31 1083.43 810.699 1082.5 807 1082C812.691 1077.89 821.973 1078.15 821.866 1069.02C821.845 1067.29 821.397 1065.67 821 1064L827 1064L827 1061C820.016 1060.94 811.578 1058.11 805.005 1061.46C797.911 1065.07 796.572 1075.5 805 1078M1034 1080C1026.75 1080.9 1022.22 1080.16 1019 1073C1023.86 1071.85 1028.28 1069.61 1033 1068C1030.43 1059.06 1018.72 1058.33 1014.86 1067.09C1009.24 1079.83 1024.62 1090.9 1034 1080M1128 1060.67C1113.74 1064.77 1117.88 1088.95 1133 1084.49C1147.07 1080.33 1143.18 1056.3 1128 1060.67M1144 1066C1150.64 1069.66 1147.86 1079.03 1146 1085L1157 1085C1155.77 1082.97 1155.3 1082.67 1153 1082C1153 1078.16 1152.01 1072.59 1154.03 1069.15C1156.22 1065.4 1160.36 1065.47 1162 1061C1157.4 1060.24 1155.51 1062.3 1152 1065L1152 1060C1148.31 1061.18 1145.88 1062.58 1144 1066M1243 1080C1239.69 1080.25 1227.62 1081.44 1229.6 1074.53C1230.66 1070.81 1238.77 1068.92 1242 1068C1239.41 1059.18 1227.77 1058.29 1224.01 1067.04C1218.43 1080.04 1233.37 1091.2 1243 1080M1316 1063L1316 1066C1320.94 1070.84 1318.79 1078.75 1318 1085L1328 1085C1327.52 1082.64 1327.36 1082.48 1325 1082C1325 1075.56 1323.03 1065.72 1332 1066L1333 1061C1328.87 1060.41 1327 1062.23 1324 1065L1324 1060L1316 1063M1371.01 1060.94C1357.12 1067.02 1364.1 1090.48 1378.99 1083.91C1392.79 1077.81 1385.08 1054.78 1371.01 1060.94M1403 1081C1396.64 1082.83 1395.5 1079.8 1390 1078C1390.06 1079.7 1389.85 1081.85 1391.03 1083.26C1394.43 1087.34 1404.49 1084.97 1406.82 1080.81C1411.38 1072.65 1399.7 1071.98 1396.75 1067.6C1395.49 1065.72 1396.81 1063.7 1399.02 1063.9C1401.09 1064.09 1403.21 1066.05 1405 1067L1405 1061C1399.47 1059.99 1385.71 1061.56 1391.03 1070.79C1393.85 1075.67 1400.31 1075.41 1403 1081M1429 1080C1425.79 1080.4 1412.4 1080.23 1417.55 1073.42C1419.86 1070.36 1425.53 1069.17 1429 1068C1427.95 1065.78 1426.96 1063.97 1424.94 1062.43C1411.63 1052.29 1401.83 1083.48 1419 1084.88C1420.66 1085.01 1422.4 1084.84 1423.98 1084.3C1426.42 1083.46 1427.71 1082.1 1429 1080M1455 1060.57C1440.4 1064.01 1443.31 1088.01 1459 1084.6C1473.77 1081.39 1470.26 1056.98 1455 1060.57M1501 1066C1507.64 1069.66 1504.86 1079.03 1503 1085L1514 1085L1514 1082L1510 1082C1510 1078.16 1509.01 1072.59 1511.03 1069.15C1513.22 1065.4 1517.36 1065.47 1519 1061C1515.04 1060.27 1513.11 1061.52 1510 1064L1510 1060C1506 1060.92 1503.04 1062.38 1501 1066M1539 1080C1531.75 1080.9 1527.22 1080.16 1524 1073C1528.92 1072.12 1533.28 1069.61 1538 1068C1535.43 1059.06 1523.72 1058.33 1519.86 1067.09C1514.21 1079.9 1529.6 1090.93 1539 1080M1569 1063L1569 1066C1575.64 1069.66 1572.86 1079.03 1571 1085L1581 1085C1580.52 1082.64 1580.36 1082.48 1578 1082C1578 1078.15 1577.02 1072.6 1579.03 1069.15C1581.15 1065.49 1585.22 1065.24 1587 1061C1582.4 1060.25 1580.43 1062.17 1577 1065L1577 1060L1569 1063M1597 1060.67C1582.12 1064.94 1586.27 1089.27 1602 1084.35C1615.9 1079.99 1611.87 1056.39 1597 1060.67M1704 1065C1709.65 1068.66 1707.06 1079.63 1705 1085L1715 1085C1713.63 1080.61 1709.4 1063.58 1718.99 1065C1727.4 1066.24 1723.31 1080.06 1722 1085L1733 1085C1732.13 1082.43 1729.98 1080.61 1729.31 1077.95C1727.69 1071.44 1732 1061.03 1722 1060.37C1720.66 1060.29 1719.25 1060.71 1718 1061.13C1715.92 1061.85 1713.96 1063 1712 1064L1712 1060C1708.6 1060.98 1705.97 1062 1704 1065M1741 1078L1741 1080L1736 1082C1736.94 1085.16 1738.2 1086.27 1741 1088C1733.05 1092.6 1735.07 1101.06 1744 1102.67C1749.68 1103.7 1757.16 1102.91 1761.77 1099.15C1769.66 1092.71 1762.1 1085.34 1755 1083.93C1751.35 1083.21 1747.69 1082.48 1744 1082C1749.3 1077.01 1759.64 1078.14 1758.58 1068.04C1758.42 1066.54 1757.64 1065.33 1757 1064L1763 1064L1763 1061C1755.68 1060.94 1747.98 1058.44 1741.04 1061.92C1733.6 1065.66 1733.79 1074.45 1741 1078M1841 1080C1837.74 1080.4 1826.05 1081.05 1829.04 1074.22C1830.62 1070.61 1837.57 1068.98 1841 1068C1838.18 1058.77 1825.43 1058.32 1822.57 1068.01C1821.32 1072.25 1821.67 1078.21 1824.65 1081.66C1829.06 1086.76 1837.8 1085.53 1841 1080M610 1082C607.146 1080.8 603.823 1081.32 601.055 1079.82C596.789 1077.51 594.025 1070.23 598.318 1066.6C602.047 1063.45 606.307 1065.88 609 1061C604.011 1061 599.118 1060.86 595.133 1064.39C589.882 1069.05 589.241 1080.11 596.058 1083.82C600.666 1086.33 605.852 1084.32 610 1082M842 1061C843.987 1068.91 849.026 1076.33 852 1084C857.694 1082.21 859.01 1075.13 861 1070C863.576 1074.83 865.895 1079.94 868 1085L870 1085C873.088 1077.57 876.544 1070.27 880 1063C881.594 1064.3 882.018 1064.54 884 1065L884 1085L893 1085C892.518 1082.64 892.364 1082.48 890 1082L890 1061C886.703 1061.15 884.042 1061.72 881 1063C878.727 1060.4 875.306 1061 872 1061C872.901 1062.92 873.076 1063 875 1064C873.643 1068.01 871.978 1071.87 871 1076C868.152 1071 866.896 1062.9 861 1061C859.577 1066.2 857.305 1071.13 855 1076C852.145 1070.14 850.265 1066.67 853 1061L842 1061M988 1063L988 1065C993.271 1070.16 990.284 1078.38 990 1085L999 1085C998.518 1082.64 998.364 1082.48 996 1082L996 1061C993.067 1061.25 990.71 1061.85 988 1063M1288 1063L1288 1065C1294.02 1070.89 1286.85 1088.48 1300.98 1084.16C1302.72 1083.63 1304.36 1082.77 1306 1082C1308.02 1085 1309.84 1084.26 1313 1083C1310.71 1075.66 1311 1068.63 1311 1061L1302 1061C1305 1065.76 1307.31 1069.94 1305.68 1075.95C1304.73 1079.44 1300.42 1081.76 1297.6 1078.64C1294.25 1074.92 1296 1065.68 1296 1061C1293.07 1061.25 1290.71 1061.85 1288 1063M1644 1063C1646.32 1070.43 1643.52 1087.64 1656 1084.36C1658.05 1083.82 1660.04 1082.8 1662 1082C1662 1083.8 1662.01 1083.52 1663 1085L1669 1083C1666.71 1075.66 1667 1068.63 1667 1061L1658 1061C1659.23 1063.03 1659.7 1063.33 1662 1064C1662 1067.95 1663.18 1074.26 1660.97 1077.72C1659.08 1080.69 1654.91 1080.91 1653.03 1077.84C1650.49 1073.68 1652 1065.72 1652 1061C1649.07 1061.25 1646.71 1061.85 1644 1063M1691 1082C1688.16 1080.81 1684.84 1081.33 1682.09 1079.82C1677.65 1077.38 1675.28 1070.42 1679.51 1066.6C1683.08 1063.39 1687.33 1065.83 1690 1061C1684.9 1061 1680.22 1060.98 1676.13 1064.53C1670.52 1069.42 1670.3 1081.13 1678.04 1084.26C1682.52 1086.06 1687.11 1084.18 1691 1082M1692 1062C1692.69 1064.43 1694.16 1066.57 1694.7 1069.04C1695.84 1074.26 1694.41 1079.79 1694 1085L1703 1085C1699.25 1077.19 1700 1069.56 1700 1061L1692 1062M1795 1065C1800.25 1068.4 1798 1079.32 1798 1085L1807 1085C1806.52 1082.64 1806.36 1082.48 1804 1082L1804 1061C1800.07 1061.18 1797.14 1061.51 1795 1065z"/>
                <path style="fill:rgb(141, 71, 71); stroke:none;" d="M619.228 1064.79C611.314 1067.88 618.336 1084 626.772 1080.39C634.658 1077.02 626.937 1061.77 619.228 1064.79M807.148 1065.03C800.889 1068.64 806.537 1078.85 812.941 1075.78C820.706 1072.05 814.321 1060.89 807.148 1065.03M1019 1071L1027 1068C1022.92 1063.16 1019.45 1065.09 1019 1071M1126.28 1065.04C1118.56 1069.6 1126.76 1084.73 1134.77 1079.97C1142.34 1075.46 1133.64 1060.69 1126.28 1065.04M1228 1071L1236 1068C1231.69 1062.83 1228.35 1064.77 1228 1071M1371.23 1064.79C1363.38 1067.9 1370.51 1083.79 1378.77 1080.38C1386.63 1077.14 1379.33 1061.57 1371.23 1064.79M1414 1071C1416.8 1070.23 1419.37 1069.23 1422 1068C1418.6 1061.82 1415.22 1066 1414 1071M1453.15 1065.07C1445.22 1069.23 1453.86 1085.04 1461.68 1079.97C1468.39 1075.62 1460.67 1061.13 1453.15 1065.07M1524 1071L1532 1068C1527.92 1063.16 1524.45 1065.09 1524 1071M1595.15 1065.05C1587.27 1069.35 1595.87 1085.04 1603.68 1079.97C1610.42 1075.6 1602.8 1060.86 1595.15 1065.05M1622.11 1065.03C1613.38 1069.88 1621.22 1084.64 1629.85 1079.67C1637.44 1075.29 1630.78 1060.22 1622.11 1065.03M1744.15 1065.03C1737.79 1068.66 1743.07 1079.66 1749.77 1075.81C1756.22 1072.1 1751.01 1061.12 1744.15 1065.03M1827 1071L1835 1068C1830.69 1062.83 1827.35 1064.77 1827 1071M695.318 1065.74C688.876 1068.97 693.901 1085.26 702.772 1079.97C710.334 1075.46 703.977 1061.4 695.318 1065.74M1267 1065C1267 1068.93 1265.44 1077.19 1268.03 1080.39C1270.14 1083.01 1274.71 1081.25 1276.77 1079.49C1281.61 1075.35 1280.2 1067.24 1273.96 1065.43C1271.76 1064.79 1269.27 1065.01 1267 1065M1342 1065L1342 1082C1345.06 1081.97 1348.25 1082.09 1350.89 1080.26C1355.28 1077.2 1356.52 1070.16 1351.85 1066.74C1349.04 1064.68 1345.29 1065.01 1342 1065M1549 1065L1549 1082C1552.43 1081.93 1556.01 1081.85 1558.77 1079.49C1562.92 1075.93 1562.69 1069.01 1557.81 1066.18C1555.22 1064.67 1551.88 1065.01 1549 1065M807.345 1089.03C803.828 1091.25 804.081 1095.86 807.229 1098.26C810.585 1100.81 817.478 1100.74 820.851 1098.26C829.839 1091.63 813.039 1085.42 807.345 1089.03M1744.23 1089.03C1740.61 1091.24 1740.93 1095.89 1744.15 1098.26C1747.25 1100.54 1753.53 1100.79 1756.85 1098.82C1759.93 1097 1760.9 1092.5 1757.68 1090.3C1754.55 1088.16 1747.59 1086.97 1744.23 1089.03z"/>
                </svg>
